<svg width="32" height="29" viewBox="0 0 32 29" fill="none" xmlns="http://www.w3.org/2000/svg">
<path d="M23.4375 6.00098V8.49985H25.9364C25.6054 7.28791 24.6494 6.33191 23.4375 6.00098Z" fill="white"/>
<path d="M29.1875 0H2.8125C1.26169 0 0 1.26169 0 2.8125V19.5625C0 21.1133 1.26169 22.375 2.8125 22.375H29.1875C30.7383 22.375 32 21.1133 32 19.5625V2.8125C32 1.26169 30.7383 0 29.1875 0ZM5.59438 14.1625C4.96031 14.6629 4.0625 14.2197 4.0625 13.4375C4.0625 12.8998 4.52338 12.4521 5.0925 12.5043C5.92 12.5919 6.239 13.6189 5.59438 14.1625ZM5.9325 9.52938C5.89219 10.0232 5.43144 10.4233 4.9075 10.37C4.41069 10.3286 4.01294 9.867 4.0675 9.34556C4.10869 8.83631 4.60094 8.40912 5.18313 8.51812C5.67606 8.62044 5.98012 9.07012 5.9325 9.52938ZM5.93313 5.52994C5.84863 6.34537 4.825 6.68513 4.275 6.03181C3.93031 5.59575 4.02794 5.02119 4.40562 4.71244C5.05687 4.18175 6.01713 4.71119 5.93313 5.52994ZM10.5 18.375H9C8.48225 18.375 8.0625 17.9552 8.0625 17.4375C8.0625 16.9198 8.48225 16.5 9 16.5H10.5C11.0177 16.5 11.4375 16.9198 11.4375 17.4375C11.4375 17.9552 11.0177 18.375 10.5 18.375ZM14 14.375H9C8.48225 14.375 8.0625 13.9552 8.0625 13.4375C8.0625 12.9198 8.48225 12.5 9 12.5H14C14.5177 12.5 14.9375 12.9198 14.9375 13.4375C14.9375 13.9552 14.5177 14.375 14 14.375ZM14 10.375H9C8.48225 10.375 8.0625 9.95525 8.0625 9.4375C8.0625 8.91975 8.48225 8.5 9 8.5H14C14.5177 8.5 14.9375 8.91975 14.9375 9.4375C14.9375 9.95525 14.5177 10.375 14 10.375ZM14 6.375H9C8.48225 6.375 8.0625 5.95525 8.0625 5.4375C8.0625 4.91975 8.48225 4.5 9 4.5H14C14.5177 4.5 14.9375 4.91975 14.9375 5.4375C14.9375 5.95525 14.5177 6.375 14 6.375ZM19.5 18.375H18C17.4823 18.375 17.0625 17.9552 17.0625 17.4375C17.0625 16.9198 17.4823 16.5 18 16.5H19.5C20.0177 16.5 20.4375 16.9198 20.4375 17.4375C20.4375 17.9552 20.0177 18.375 19.5 18.375ZM22.5 14.875C19.5018 14.875 17.0625 12.4358 17.0625 9.4375C17.0625 6.43925 19.5018 4 22.5 4C25.4982 4 27.9375 6.43925 27.9375 9.4375C27.9375 12.4358 25.4982 14.875 22.5 14.875Z" fill="white"/>
<path d="M21.5625 9.43735V6.00098C20.0516 6.41366 18.9375 7.79748 18.9375 9.43735C18.9375 11.4017 20.5356 12.9999 22.5 12.9999C24.1399 12.9999 25.5238 11.8857 25.9364 10.3749H22.5C21.9823 10.3749 21.5625 9.9551 21.5625 9.43735ZM26 26.4999H19.9375V24.2499H12.0625V26.4999H6C5.48225 26.4999 5.0625 26.9196 5.0625 27.4374C5.0625 27.9551 5.48225 28.3749 6 28.3749H26C26.5177 28.3749 26.9375 27.9551 26.9375 27.4374C26.9375 26.9196 26.5177 26.4999 26 26.4999Z" fill="white"/>
</svg>
