<svg width="275" height="72" viewBox="0 0 275 72" fill="none" xmlns="http://www.w3.org/2000/svg">
<g clip-path="url(#clip0_27_2138)">
<path d="M0 14.8095C0 6.63043 6.63043 0 14.8095 0H57.1222C65.3013 0 71.9316 6.63043 71.9316 14.8095V57.1222C71.9316 65.3013 65.3013 71.9316 57.1222 71.9316H14.8095C6.63043 71.9316 0 65.3013 0 57.1222V14.8095Z" fill="#F14635"/>
<path fill-rule="evenodd" clip-rule="evenodd" d="M35.9672 12.1387C49.0931 12.1387 59.7385 22.6529 59.7934 35.6449V35.8492C59.7695 41.6255 57.644 46.91 54.1418 51.0006C54.0146 50.9368 53.783 50.7282 53.3631 50.1001C52.9288 49.4689 49.1826 43.7034 49.1826 37.0954C49.1826 35.7986 51.0519 33.7728 52.7059 31.9945L52.7414 31.9563C53.9647 30.6326 55.1178 29.3849 55.5449 28.4025C56.0943 27.1224 55.7099 26.2287 55.1021 25.9257C54.5518 25.6565 53.7255 25.8529 53.146 26.8826C52.1947 28.5489 51.8899 28.8603 50.5021 29.9753C49.1367 31.0898 46.9657 32.2116 46.9657 30.7595C46.9657 30.2299 47.5173 29.2482 48.0591 28.2832L48.0595 28.2831C48.3198 27.8191 48.5783 27.359 48.7721 26.9548C49.3822 25.6963 48.7249 24.7852 47.4652 24.7852C44.9916 24.7852 43.35 27.9361 43.35 29.0275C43.35 29.5521 43.4724 29.8604 43.5994 30.1803C43.7366 30.5256 43.8791 30.8846 43.8791 31.5438C43.8791 32.8236 41.1652 34.4835 38.6089 34.4835C36.0358 34.4835 34.5928 33.939 34.0536 32.3848L33.8827 31.8791L33.8542 31.7961C33.2625 30.0665 32.8293 28.8002 32.084 27.478C31.6902 26.7826 31.0873 26.2959 30.5587 25.8692L30.5249 25.842C29.8236 25.2972 29.4598 24.7957 29.3839 24.4216C29.314 24.0505 29.2761 23.3511 30.4751 21.739C31.6713 20.1361 31.839 18.9251 31.2404 18.3003C31.0233 18.078 30.6534 17.9356 30.1784 17.9356C29.3382 17.9356 28.1707 18.3808 26.9674 19.6037C25.507 21.1001 25.8342 22.5375 26.0478 23.476C26.1078 23.7394 26.1589 23.9636 26.1589 24.1388C26.1589 24.937 25.8162 25.3886 24.6938 26.4746C23.5631 27.5654 23.1729 28.5007 23.0436 32.2596C22.9941 34.1962 22.653 35.3112 22.3468 36.2997C22.0822 37.1662 21.8389 37.9807 21.8257 39.1577C21.8048 40.4619 22.0219 41.3024 22.2752 42.2723C22.5239 43.1687 22.7881 44.1959 22.9574 45.9137C23.249 48.795 23.1149 51.1917 22.5129 53.6918L22.4824 53.8572L22.4761 53.8824C22.3771 54.2812 22.2596 54.7546 22.1019 54.9344C16.0713 50.6509 12.1387 43.6553 12.1387 35.7477C12.1387 22.7099 22.8066 12.1387 35.9672 12.1387ZM37.0765 37.6814C35.8902 37.4947 35.0166 37.6668 34.4016 38.1869C32.814 39.5389 32.8412 43.3066 32.873 47.6765L32.8809 48.9137C32.8994 53.2458 32.9237 56.9916 33.9352 58.638C34.2577 59.1635 34.867 59.5479 35.6775 59.7781C35.7369 59.7799 35.7963 59.7817 35.8557 59.7839C36.0059 59.7893 36.1564 59.7947 36.3086 59.7947C38.3141 59.7947 40.2613 59.5466 42.1241 59.088C42.8941 58.7166 43.4517 58.2711 43.6431 57.8067C43.7578 57.5055 43.8208 56.957 43.8208 56.2426C43.8208 53.4126 42.9898 48.0146 42.5791 45.3464L42.5669 45.2672L42.3593 43.8849L42.3201 43.6124L42.3182 43.5993C41.9703 41.1478 41.577 38.3761 37.0765 37.6814ZM29.4183 55.1358C29.2989 51.6889 28.7046 47.1428 27.7803 47.195C26.784 47.2561 26.405 52.4424 26.8413 55.9046C26.9842 57.0065 27.2092 57.8476 27.5034 58.3822C27.9445 58.5611 28.3921 58.7256 28.8476 58.8776C29.25 58.5229 29.5021 57.5361 29.4183 55.1358ZM50.9539 53.9867C51.1697 52.8893 48.5657 46.6753 47.1127 47.3771C45.9978 47.93 46.4303 54.2794 47.5821 56.3033C47.7021 56.5065 47.948 56.5389 48.225 56.4922C49.094 55.9684 49.9248 55.3867 50.7147 54.7523C50.815 54.5464 50.8963 54.3027 50.9539 53.9867Z" fill="white"/>
<path d="M97.6193 7.17285V39.1346H89.9141V7.17285H97.6193ZM116.695 7.17285L104.314 23.3732L97.0704 31.2979L95.6654 24.2294L100.297 17.2048L107.19 7.17285H116.695ZM107.585 39.1346L99.3313 24.7343L105.324 20.3219L116.695 39.1346H107.585Z" fill="black"/>
<path d="M130.657 33.1639V23.3733C130.657 22.7001 130.561 22.1221 130.371 21.6392C130.181 21.1562 129.881 20.783 129.471 20.5196C129.062 20.2416 128.513 20.1025 127.825 20.1025C127.269 20.1025 126.793 20.1976 126.398 20.3879C126.003 20.5782 125.703 20.8635 125.498 21.244C125.293 21.6245 125.191 22.1075 125.191 22.6929H117.793C117.793 21.5953 118.034 20.5782 118.517 19.6416C119.015 18.6903 119.717 17.8635 120.625 17.161C121.547 16.4585 122.644 15.917 123.918 15.5366C125.205 15.1414 126.639 14.9438 128.22 14.9438C130.108 14.9438 131.791 15.2585 133.269 15.8878C134.762 16.5171 135.94 17.461 136.803 18.7196C137.666 19.9635 138.098 21.5294 138.098 23.4173V33.1419C138.098 34.6932 138.186 35.8712 138.362 36.6761C138.537 37.4664 138.786 38.1615 139.108 38.7616V39.1347H131.688C131.337 38.403 131.074 37.5103 130.898 36.4566C130.737 35.3883 130.657 34.2907 130.657 33.1639ZM131.557 24.6246L131.601 28.5759H128.33C127.642 28.5759 127.057 28.6711 126.574 28.8613C126.105 29.0515 125.725 29.315 125.432 29.6516C125.154 29.9735 124.949 30.3394 124.818 30.7492C124.7 31.1589 124.642 31.5906 124.642 32.0443C124.642 32.4833 124.744 32.8785 124.949 33.2297C125.169 33.5663 125.461 33.8297 125.827 34.02C126.193 34.2102 126.603 34.3053 127.057 34.3053C127.876 34.3053 128.571 34.1517 129.142 33.8443C129.727 33.5224 130.174 33.1346 130.481 32.6809C130.788 32.2272 130.942 31.8028 130.942 31.4077L132.566 34.437C132.274 35.0224 131.937 35.6152 131.557 36.2152C131.191 36.8152 130.73 37.3713 130.174 37.8835C129.632 38.3811 128.966 38.7908 128.176 39.1128C127.386 39.4201 126.427 39.5738 125.3 39.5738C123.837 39.5738 122.491 39.2738 121.262 38.6737C120.047 38.0737 119.073 37.2395 118.342 36.1712C117.61 35.0883 117.244 33.8443 117.244 32.4394C117.244 31.2101 117.464 30.1126 117.903 29.1467C118.356 28.1808 119.037 27.3613 119.944 26.6881C120.852 26.0149 122.008 25.5027 123.413 25.1514C124.818 24.8002 126.471 24.6246 128.374 24.6246H131.557Z" fill="black"/>
<path d="M154.65 32.4614C154.65 32.0516 154.511 31.7004 154.233 31.4077C153.969 31.1004 153.501 30.8223 152.828 30.5736C152.155 30.3101 151.211 30.0467 149.996 29.7833C148.84 29.5345 147.75 29.2052 146.725 28.7954C145.715 28.3857 144.83 27.8881 144.069 27.3027C143.308 26.7173 142.708 26.0222 142.269 25.2173C141.845 24.4124 141.632 23.4904 141.632 22.4514C141.632 21.4416 141.845 20.4904 142.269 19.5976C142.708 18.6903 143.345 17.8927 144.179 17.2049C145.028 16.5024 146.059 15.9536 147.274 15.5585C148.489 15.1488 149.872 14.9438 151.423 14.9438C153.56 14.9438 155.404 15.2732 156.955 15.9317C158.506 16.5756 159.699 17.4829 160.533 18.6537C161.382 19.8098 161.806 21.1489 161.806 22.6709H154.408C154.408 22.0709 154.306 21.5587 154.101 21.1343C153.911 20.7099 153.596 20.3879 153.157 20.1684C152.718 19.9342 152.133 19.8172 151.401 19.8172C150.889 19.8172 150.421 19.9123 149.996 20.1025C149.586 20.2928 149.257 20.5562 149.008 20.8928C148.76 21.2294 148.635 21.6245 148.635 22.0782C148.635 22.4001 148.708 22.6929 148.855 22.9563C149.016 23.2051 149.257 23.4392 149.579 23.6587C149.901 23.8636 150.311 24.0539 150.808 24.2295C151.306 24.3904 151.906 24.5368 152.608 24.6685C154.203 24.9612 155.696 25.3783 157.087 25.9198C158.477 26.4612 159.604 27.2295 160.467 28.2247C161.345 29.2198 161.784 30.5589 161.784 32.2419C161.784 33.2955 161.543 34.2688 161.06 35.1614C160.577 36.0395 159.882 36.8152 158.974 37.4883C158.067 38.1469 156.977 38.6591 155.704 39.025C154.43 39.3908 152.996 39.5738 151.401 39.5738C149.133 39.5738 147.216 39.1713 145.65 38.3664C144.084 37.5469 142.898 36.5225 142.093 35.2932C141.303 34.0492 140.908 32.7907 140.908 31.5175H147.801C147.83 32.2492 148.006 32.8492 148.328 33.3175C148.664 33.7858 149.111 34.1297 149.667 34.3492C150.223 34.5688 150.867 34.6785 151.599 34.6785C152.272 34.6785 152.828 34.5834 153.267 34.3932C153.721 34.2029 154.064 33.9468 154.299 33.6248C154.533 33.2883 154.65 32.9004 154.65 32.4614Z" fill="black"/>
<path d="M172.716 19.9489V48.2665H165.318V15.3829H172.211L172.716 19.9489ZM187.292 26.9734V27.4344C187.292 29.1613 187.094 30.7638 186.699 32.2419C186.304 33.72 185.719 35.0078 184.943 36.1054C184.168 37.203 183.201 38.0591 182.046 38.6737C180.904 39.2738 179.58 39.5738 178.072 39.5738C176.653 39.5738 175.431 39.2591 174.406 38.6299C173.382 38.0005 172.526 37.1298 171.838 36.0176C171.15 34.9054 170.594 33.6321 170.17 32.198C169.745 30.7638 169.409 29.2491 169.16 27.6539V27.0613C169.409 25.349 169.745 23.7612 170.17 22.2977C170.594 20.8196 171.15 19.5318 171.838 18.4342C172.526 17.3366 173.375 16.4805 174.384 15.8658C175.409 15.2512 176.631 14.9438 178.05 14.9438C179.558 14.9438 180.882 15.2292 182.024 15.8C183.179 16.3707 184.146 17.1903 184.921 18.2586C185.711 19.3123 186.304 20.5782 186.699 22.0562C187.094 23.5343 187.292 25.1734 187.292 26.9734ZM179.894 27.4344V26.9734C179.894 26.0515 179.828 25.21 179.697 24.449C179.565 23.6734 179.353 23.0002 179.06 22.4294C178.782 21.8587 178.409 21.4196 177.941 21.1123C177.472 20.805 176.894 20.6513 176.206 20.6513C175.416 20.6513 174.75 20.7757 174.209 21.0245C173.682 21.2587 173.257 21.6245 172.935 22.1221C172.628 22.605 172.409 23.2124 172.277 23.9441C172.16 24.6612 172.109 25.5027 172.123 26.4686V28.2686C172.094 29.3808 172.204 30.3614 172.453 31.2101C172.701 32.0443 173.133 32.6955 173.748 33.1639C174.362 33.6321 175.196 33.8663 176.25 33.8663C176.953 33.8663 177.538 33.7053 178.006 33.3834C178.475 33.0468 178.848 32.5858 179.126 32.0004C179.404 31.4004 179.601 30.7126 179.719 29.9369C179.836 29.1613 179.894 28.3271 179.894 27.4344Z" fill="black"/>
<path d="M198.4 15.3829V39.1347H190.98V15.3829H198.4ZM190.541 9.25834C190.541 8.20463 190.921 7.34118 191.682 6.66799C192.444 5.9948 193.431 5.6582 194.646 5.6582C195.861 5.6582 196.849 5.9948 197.61 6.66799C198.37 7.34118 198.751 8.20463 198.751 9.25834C198.751 10.312 198.37 11.1754 197.61 11.8486C196.849 12.5218 195.861 12.8584 194.646 12.8584C193.431 12.8584 192.444 12.5218 191.682 11.8486C190.921 11.1754 190.541 10.312 190.541 9.25834Z" fill="black"/>
<path d="M203.656 35.6664C203.656 34.6127 204.037 33.7346 204.798 33.0322C205.559 32.3151 206.539 31.9565 207.739 31.9565C208.954 31.9565 209.935 32.3151 210.681 33.0322C211.442 33.7346 211.822 34.6127 211.822 35.6664C211.822 36.7201 211.442 37.6055 210.681 38.3226C209.935 39.025 208.954 39.3762 207.739 39.3762C206.539 39.3762 205.559 39.025 204.798 38.3226C204.037 37.6055 203.656 36.7201 203.656 35.6664Z" fill="black"/>
<path d="M224.04 5.39502V39.1349H216.643V5.39502H224.04ZM239.231 15.3831L228.914 27.4785L223.513 32.8787L220.286 28.181L224.787 22.3199L230.362 15.3831H239.231ZM231.306 39.1349L224.962 28.3127L230.428 24.4272L239.78 39.1349H231.306Z" fill="black"/>
<path d="M260.7 33.4272V39.1346H242.305V33.4272H260.7ZM260.481 19.378L245.62 39.1346H240.549V35.0077L255.388 15.3828H260.481V19.378ZM258.044 15.3828V21.0903H240.988V15.3828H258.044Z" fill="black"/>
<path d="M96.0222 54.3093V61.1504H94.8475V55.249H91.8076V61.1504H90.6329V54.3093H96.0222ZM98.4654 57.0439V63.105H97.333V56.0666H98.3761L98.4654 57.0439ZM101.778 58.5615V58.6602C101.778 59.0298 101.734 59.3728 101.646 59.6891C101.562 60.0024 101.435 60.2765 101.266 60.5114C101.1 60.7432 100.895 60.9233 100.65 61.0517C100.406 61.1801 100.124 61.2444 99.8045 61.2444C99.4881 61.2444 99.2109 61.1864 98.9728 61.0705C98.7379 60.9515 98.539 60.7839 98.3761 60.5678C98.2132 60.3516 98.0817 60.0979 97.9814 59.8066C97.8843 59.5122 97.8154 59.1895 97.7747 58.8387V58.4581C97.8154 58.0854 97.8843 57.7471 97.9814 57.4432C98.0817 57.1394 98.2132 56.8779 98.3761 56.6586C98.539 56.4393 98.7379 56.2702 98.9728 56.1511C99.2078 56.0321 99.4818 55.9726 99.7951 55.9726C100.115 55.9726 100.398 56.0353 100.646 56.1605C100.893 56.2827 101.101 56.4581 101.27 56.6868C101.44 56.9123 101.566 57.1848 101.651 57.5043C101.736 57.8207 101.778 58.1731 101.778 58.5615ZM100.646 58.6602V58.5615C100.646 58.3266 100.624 58.1089 100.58 57.9084C100.536 57.7048 100.467 57.5263 100.373 57.3728C100.279 57.2193 100.158 57.1003 100.011 57.0157C99.8671 56.928 99.6933 56.8841 99.4897 56.8841C99.2892 56.8841 99.1169 56.9186 98.9728 56.9875C98.8288 57.0533 98.7082 57.1457 98.6111 57.2647C98.5139 57.3837 98.4388 57.5231 98.3855 57.6829C98.3323 57.8395 98.2947 58.0102 98.2728 58.195V59.1065C98.3103 59.3321 98.3746 59.5388 98.4654 59.7267C98.5562 59.9147 98.6847 60.065 98.8507 60.1778C99.0198 60.2874 99.236 60.3422 99.4991 60.3422C99.7027 60.3422 99.8765 60.2984 100.021 60.2107C100.165 60.123 100.282 60.0024 100.373 59.8489C100.467 59.6923 100.536 59.5122 100.58 59.3086C100.624 59.105 100.646 58.8888 100.646 58.6602ZM102.525 58.6649V58.5568C102.525 58.1903 102.578 57.8505 102.685 57.5372C102.791 57.2208 102.945 56.9468 103.145 56.715C103.349 56.48 103.596 56.2984 103.888 56.1699C104.182 56.0384 104.514 55.9726 104.884 55.9726C105.256 55.9726 105.588 56.0384 105.88 56.1699C106.174 56.2984 106.423 56.48 106.627 56.715C106.83 56.9468 106.985 57.2208 107.092 57.5372C107.198 57.8505 107.252 58.1903 107.252 58.5568V58.6649C107.252 59.0314 107.198 59.3712 107.092 59.6844C106.985 59.9977 106.83 60.2718 106.627 60.5067C106.423 60.7385 106.176 60.9202 105.884 61.0517C105.593 61.1801 105.263 61.2444 104.893 61.2444C104.52 61.2444 104.187 61.1801 103.892 61.0517C103.601 60.9202 103.353 60.7385 103.15 60.5067C102.946 60.2718 102.791 59.9977 102.685 59.6844C102.578 59.3712 102.525 59.0314 102.525 58.6649ZM103.657 58.5568V58.6649C103.657 58.8935 103.681 59.1097 103.728 59.3133C103.775 59.5169 103.848 59.6954 103.949 59.8489C104.049 60.0024 104.177 60.123 104.334 60.2107C104.49 60.2984 104.677 60.3422 104.893 60.3422C105.103 60.3422 105.285 60.2984 105.438 60.2107C105.595 60.123 105.723 60.0024 105.823 59.8489C105.924 59.6954 105.997 59.5169 106.044 59.3133C106.094 59.1097 106.119 58.8935 106.119 58.6649V58.5568C106.119 58.3313 106.094 58.1183 106.044 57.9178C105.997 57.7142 105.922 57.5341 105.819 57.3775C105.718 57.2208 105.59 57.0987 105.433 57.011C105.28 56.9201 105.097 56.8747 104.884 56.8747C104.671 56.8747 104.486 56.9201 104.329 57.011C104.176 57.0987 104.049 57.2208 103.949 57.3775C103.848 57.5341 103.775 57.7142 103.728 57.9178C103.681 58.1183 103.657 58.3313 103.657 58.5568ZM114.238 58.6696V58.7682C114.238 59.1285 114.198 59.4605 114.116 59.7643C114.038 60.065 113.92 60.3266 113.764 60.549C113.607 60.7714 113.413 60.9437 113.181 61.0658C112.953 61.188 112.686 61.2491 112.382 61.2491C112.116 61.2491 111.884 61.2036 111.687 61.1128C111.49 61.022 111.324 60.8951 111.189 60.7322C111.054 60.5662 110.946 60.372 110.865 60.1496C110.783 59.9241 110.724 59.6766 110.686 59.4072V57.9366C110.724 57.6484 110.782 57.3853 110.86 57.1472C110.942 56.906 111.05 56.6977 111.184 56.5223C111.322 56.3469 111.488 56.2122 111.682 56.1183C111.877 56.0212 112.107 55.9726 112.373 55.9726C112.617 55.9726 112.838 56.0165 113.036 56.1042C113.233 56.1887 113.407 56.3109 113.557 56.4706C113.707 56.6273 113.833 56.8168 113.933 57.0392C114.033 57.2584 114.108 57.5059 114.159 57.7815C114.212 58.0572 114.238 58.3532 114.238 58.6696ZM113.106 58.7682V58.6696C113.106 58.4722 113.094 58.2843 113.068 58.1057C113.043 57.9272 113.004 57.7643 112.951 57.6171C112.901 57.4667 112.835 57.3367 112.754 57.2271C112.672 57.1143 112.574 57.0282 112.458 56.9687C112.345 56.906 112.213 56.8747 112.063 56.8747C111.859 56.8747 111.69 56.9092 111.556 56.9781C111.424 57.0439 111.324 57.1378 111.255 57.26C111.189 57.379 111.147 57.5169 111.128 57.6735V59.6751C111.15 59.8066 111.195 59.9225 111.264 60.0227C111.336 60.123 111.438 60.2029 111.57 60.2624C111.701 60.3187 111.869 60.3469 112.072 60.3469C112.26 60.3469 112.418 60.3078 112.547 60.2295C112.678 60.148 112.785 60.0353 112.866 59.8912C112.951 59.7471 113.012 59.5795 113.05 59.3884C113.087 59.1974 113.106 58.9906 113.106 58.7682ZM108.008 58.7682V58.6696C108.008 58.3532 108.033 58.0572 108.083 57.7815C108.133 57.5059 108.209 57.2584 108.309 57.0392C108.412 56.8168 108.539 56.6273 108.689 56.4706C108.84 56.3109 109.014 56.1887 109.211 56.1042C109.408 56.0165 109.629 55.9726 109.873 55.9726C110.137 55.9726 110.364 56.0212 110.555 56.1183C110.746 56.2122 110.907 56.3469 111.039 56.5223C111.173 56.6977 111.28 56.906 111.358 57.1472C111.44 57.3853 111.499 57.6484 111.537 57.9366V59.3509C111.502 59.6265 111.444 59.8802 111.363 60.112C111.281 60.3438 111.175 60.5443 111.043 60.7134C110.912 60.8826 110.749 61.0141 110.555 61.1081C110.361 61.2021 110.13 61.2491 109.864 61.2491C109.563 61.2491 109.297 61.188 109.065 61.0658C108.833 60.9437 108.639 60.7714 108.483 60.549C108.326 60.3266 108.207 60.065 108.126 59.7643C108.047 59.4605 108.008 59.1285 108.008 58.7682ZM109.14 58.6696V58.7682C109.14 58.9906 109.158 59.1974 109.192 59.3884C109.23 59.5795 109.288 59.7471 109.366 59.8912C109.444 60.0321 109.548 60.1433 109.676 60.2248C109.805 60.3062 109.963 60.3469 110.151 60.3469C110.357 60.3469 110.527 60.3156 110.658 60.253C110.79 60.1903 110.89 60.1042 110.959 59.9946C111.031 59.8849 111.078 59.7596 111.1 59.6187V57.6735C111.081 57.5169 111.037 57.379 110.968 57.26C110.899 57.1378 110.799 57.0439 110.667 56.9781C110.536 56.9092 110.367 56.8747 110.16 56.8747C109.972 56.8747 109.812 56.9217 109.681 57.0157C109.552 57.1097 109.447 57.2396 109.366 57.4057C109.288 57.5685 109.23 57.7596 109.192 57.9789C109.158 58.195 109.14 58.4252 109.14 58.6696ZM110.531 63.105V53.9334H111.668V63.105H110.531ZM117.452 61.2444C117.076 61.2444 116.736 61.1833 116.433 61.0611C116.132 60.9358 115.875 60.762 115.662 60.5396C115.452 60.3172 115.291 60.0556 115.178 59.7549C115.065 59.4542 115.009 59.13 115.009 58.7823V58.5944C115.009 58.1966 115.067 57.8364 115.183 57.5137C115.299 57.1911 115.46 56.9154 115.667 56.6868C115.873 56.455 116.118 56.278 116.4 56.1558C116.682 56.0337 116.987 55.9726 117.316 55.9726C117.679 55.9726 117.997 56.0337 118.27 56.1558C118.542 56.278 118.768 56.4503 118.946 56.6727C119.128 56.892 119.263 57.1535 119.35 57.4573C119.441 57.7612 119.487 58.0963 119.487 58.4628V58.9468H115.559V58.1339H118.368V58.0447C118.362 57.8411 118.321 57.65 118.246 57.4714C118.174 57.2929 118.063 57.1488 117.913 57.0392C117.762 56.9295 117.562 56.8747 117.311 56.8747C117.123 56.8747 116.956 56.9154 116.808 56.9969C116.664 57.0752 116.544 57.1895 116.447 57.3399C116.35 57.4902 116.274 57.6719 116.221 57.8849C116.171 58.0948 116.146 58.3313 116.146 58.5944V58.7823C116.146 59.0047 116.176 59.2115 116.235 59.4025C116.298 59.5905 116.389 59.7549 116.508 59.8959C116.627 60.0368 116.771 60.148 116.94 60.2295C117.109 60.3078 117.302 60.3469 117.518 60.3469C117.79 60.3469 118.033 60.2921 118.246 60.1825C118.459 60.0729 118.644 59.9178 118.801 59.7173L119.397 60.2953C119.288 60.455 119.145 60.6085 118.97 60.7557C118.794 60.8998 118.58 61.0173 118.326 61.1081C118.076 61.1989 117.784 61.2444 117.452 61.2444ZM122.447 60.3422C122.632 60.3422 122.798 60.3062 122.945 60.2342C123.095 60.159 123.216 60.0556 123.307 59.9241C123.401 59.7925 123.452 59.6406 123.462 59.4683H124.528C124.522 59.7972 124.425 60.0964 124.237 60.3657C124.049 60.6351 123.8 60.8497 123.49 61.0094C123.18 61.1661 122.837 61.2444 122.461 61.2444C122.072 61.2444 121.734 61.1786 121.446 61.047C121.158 60.9123 120.918 60.7275 120.727 60.4926C120.536 60.2577 120.392 59.9867 120.295 59.6797C120.201 59.3728 120.154 59.0439 120.154 58.6931V58.5286C120.154 58.1778 120.201 57.8489 120.295 57.5419C120.392 57.2318 120.536 56.9593 120.727 56.7244C120.918 56.4894 121.158 56.3062 121.446 56.1746C121.734 56.04 122.071 55.9726 122.456 55.9726C122.863 55.9726 123.22 56.054 123.527 56.2169C123.834 56.3767 124.076 56.6006 124.251 56.8888C124.43 57.1739 124.522 57.5059 124.528 57.8849H123.462C123.452 57.697 123.405 57.5278 123.321 57.3775C123.239 57.224 123.123 57.1018 122.973 57.011C122.826 56.9201 122.649 56.8747 122.442 56.8747C122.213 56.8747 122.024 56.9217 121.873 57.0157C121.723 57.1065 121.606 57.2318 121.521 57.3916C121.437 57.5482 121.375 57.7252 121.338 57.9225C121.303 58.1167 121.286 58.3187 121.286 58.5286V58.6931C121.286 58.9029 121.303 59.1065 121.338 59.3039C121.372 59.5012 121.432 59.6782 121.516 59.8348C121.604 59.9883 121.723 60.112 121.873 60.206C122.024 60.2968 122.215 60.3422 122.447 60.3422ZM127.474 60.3422C127.659 60.3422 127.825 60.3062 127.972 60.2342C128.123 60.159 128.243 60.0556 128.334 59.9241C128.428 59.7925 128.48 59.6406 128.489 59.4683H129.556C129.549 59.7972 129.452 60.0964 129.264 60.3657C129.076 60.6351 128.827 60.8497 128.517 61.0094C128.207 61.1661 127.864 61.2444 127.488 61.2444C127.1 61.2444 126.762 61.1786 126.473 61.047C126.185 60.9123 125.946 60.7275 125.754 60.4926C125.563 60.2577 125.419 59.9867 125.322 59.6797C125.228 59.3728 125.181 59.0439 125.181 58.6931V58.5286C125.181 58.1778 125.228 57.8489 125.322 57.5419C125.419 57.2318 125.563 56.9593 125.754 56.7244C125.946 56.4894 126.185 56.3062 126.473 56.1746C126.762 56.04 127.098 55.9726 127.484 55.9726C127.891 55.9726 128.248 56.054 128.555 56.2169C128.862 56.3767 129.103 56.6006 129.278 56.8888C129.457 57.1739 129.549 57.5059 129.556 57.8849H128.489C128.48 57.697 128.433 57.5278 128.348 57.3775C128.267 57.224 128.151 57.1018 128 57.011C127.853 56.9201 127.676 56.8747 127.469 56.8747C127.241 56.8747 127.051 56.9217 126.901 57.0157C126.751 57.1065 126.633 57.2318 126.549 57.3916C126.464 57.5482 126.403 57.7252 126.365 57.9225C126.331 58.1167 126.314 58.3187 126.314 58.5286V58.6931C126.314 58.9029 126.331 59.1065 126.365 59.3039C126.4 59.5012 126.459 59.6782 126.544 59.8348C126.632 59.9883 126.751 60.112 126.901 60.206C127.051 60.2968 127.242 60.3422 127.474 60.3422ZM131.595 59.4965L133.592 56.0666H134.724V61.1504H133.592V57.7158L131.595 61.1504H130.462V56.0666H131.595V59.4965ZM135.706 58.6649V58.5568C135.706 58.1903 135.759 57.8505 135.866 57.5372C135.972 57.2208 136.126 56.9468 136.326 56.715C136.53 56.48 136.777 56.2984 137.069 56.1699C137.363 56.0384 137.695 55.9726 138.065 55.9726C138.437 55.9726 138.769 56.0384 139.061 56.1699C139.355 56.2984 139.604 56.48 139.808 56.715C140.011 56.9468 140.166 57.2208 140.273 57.5372C140.379 57.8505 140.433 58.1903 140.433 58.5568V58.6649C140.433 59.0314 140.379 59.3712 140.273 59.6844C140.166 59.9977 140.011 60.2718 139.808 60.5067C139.604 60.7385 139.357 60.9202 139.065 61.0517C138.774 61.1801 138.444 61.2444 138.074 61.2444C137.701 61.2444 137.368 61.1801 137.073 61.0517C136.782 60.9202 136.534 60.7385 136.331 60.5067C136.127 60.2718 135.972 59.9977 135.866 59.6844C135.759 59.3712 135.706 59.0314 135.706 58.6649ZM136.838 58.5568V58.6649C136.838 58.8935 136.862 59.1097 136.909 59.3133C136.956 59.5169 137.029 59.6954 137.13 59.8489C137.23 60.0024 137.358 60.123 137.515 60.2107C137.672 60.2984 137.858 60.3422 138.074 60.3422C138.284 60.3422 138.466 60.2984 138.619 60.2107C138.776 60.123 138.904 60.0024 139.004 59.8489C139.105 59.6954 139.178 59.5169 139.225 59.3133C139.275 59.1097 139.3 58.8935 139.3 58.6649V58.5568C139.3 58.3313 139.275 58.1183 139.225 57.9178C139.178 57.7142 139.103 57.5341 139 57.3775C138.899 57.2208 138.771 57.0987 138.614 57.011C138.461 56.9201 138.278 56.8747 138.065 56.8747C137.852 56.8747 137.667 56.9201 137.51 57.011C137.357 57.0987 137.23 57.2208 137.13 57.3775C137.029 57.5341 136.956 57.7142 136.909 57.9178C136.862 58.1183 136.838 58.3313 136.838 58.5568ZM144.854 58.1903V59.083H142.223V58.1903H144.854ZM142.552 56.0666V61.1504H141.419V56.0666H142.552ZM145.672 56.0666V61.1504H144.539V56.0666H145.672ZM149.745 60.1308V57.7064C149.745 57.5247 149.712 57.3681 149.647 57.2365C149.581 57.105 149.481 57.0032 149.346 56.9311C149.214 56.8591 149.048 56.823 148.848 56.823C148.663 56.823 148.503 56.8544 148.369 56.917C148.234 56.9797 148.129 57.0642 148.054 57.1707C147.979 57.2772 147.941 57.3978 147.941 57.5325H146.813C146.813 57.332 146.862 57.1378 146.959 56.9499C147.056 56.762 147.197 56.5944 147.382 56.4472C147.567 56.2999 147.787 56.184 148.044 56.0995C148.301 56.0149 148.589 55.9726 148.909 55.9726C149.291 55.9726 149.629 56.0368 149.924 56.1652C150.221 56.2937 150.455 56.4879 150.624 56.7479C150.796 57.0047 150.882 57.3273 150.882 57.7158V59.9758C150.882 60.2076 150.898 60.4159 150.929 60.6007C150.964 60.7823 151.012 60.9405 151.075 61.0752V61.1504H149.914C149.861 61.0282 149.819 60.8732 149.787 60.6852C149.759 60.4942 149.745 60.3094 149.745 60.1308ZM149.91 58.0588L149.919 58.7588H149.106C148.896 58.7588 148.712 58.7792 148.552 58.8199C148.392 58.8575 148.259 58.9139 148.152 58.9891C148.046 59.0642 147.966 59.1551 147.913 59.2616C147.86 59.3681 147.833 59.4887 147.833 59.6234C147.833 59.7581 147.864 59.8818 147.927 59.9946C147.99 60.1042 148.08 60.1903 148.199 60.253C148.322 60.3156 148.469 60.3469 148.641 60.3469C148.873 60.3469 149.075 60.3 149.247 60.206C149.423 60.1089 149.56 59.9914 149.661 59.8536C149.761 59.7126 149.814 59.5795 149.82 59.4542L150.187 59.957C150.149 60.0854 150.085 60.2232 149.994 60.3704C149.903 60.5177 149.784 60.6586 149.637 60.7933C149.493 60.9249 149.319 61.0329 149.116 61.1175C148.915 61.2021 148.683 61.2444 148.42 61.2444C148.088 61.2444 147.792 61.1786 147.532 61.047C147.272 60.9123 147.069 60.7322 146.921 60.5067C146.774 60.278 146.701 60.0196 146.701 59.7314C146.701 59.4621 146.751 59.224 146.851 59.0173C146.954 58.8074 147.105 58.632 147.302 58.491C147.502 58.3501 147.747 58.2436 148.035 58.1715C148.323 58.0963 148.652 58.0588 149.022 58.0588H149.91ZM155.482 56.0666V56.9687H153.001V56.0666H155.482ZM156.37 56.0666V61.1504H155.238V56.0666H156.37ZM152.724 56.0666H153.842L153.706 58.5803C153.687 58.953 153.65 59.2819 153.593 59.567C153.54 59.8489 153.468 60.0917 153.377 60.2953C153.286 60.4957 153.175 60.6586 153.044 60.7839C152.912 60.9092 152.759 61.0016 152.583 61.0611C152.408 61.1206 152.21 61.1504 151.991 61.1504H151.639L151.634 60.2201L151.813 60.206C151.928 60.1966 152.029 60.1668 152.113 60.1167C152.198 60.0635 152.27 59.9883 152.329 59.8912C152.392 59.7941 152.442 59.6688 152.48 59.5153C152.52 59.3618 152.552 59.1801 152.574 58.9703C152.599 58.7604 152.618 58.5161 152.63 58.2373L152.724 56.0666ZM158.414 57.6829H159.913C160.351 57.6829 160.724 57.7565 161.031 57.9037C161.338 58.0509 161.571 58.2561 161.731 58.5192C161.894 58.7792 161.976 59.0768 161.976 59.4119C161.976 59.6594 161.93 59.8896 161.839 60.1026C161.748 60.3125 161.614 60.4957 161.435 60.6523C161.26 60.809 161.044 60.9311 160.787 61.0188C160.533 61.1065 160.242 61.1504 159.913 61.1504H157.662V56.0666H158.799V60.253H159.913C160.138 60.253 160.318 60.2138 160.453 60.1355C160.588 60.0572 160.685 59.9554 160.744 59.8301C160.807 59.7048 160.838 59.5717 160.838 59.4307C160.838 59.2866 160.807 59.1504 160.744 59.022C160.685 58.8935 160.588 58.7886 160.453 58.7072C160.318 58.6257 160.138 58.585 159.913 58.585H158.414V57.6829ZM166.355 58.1903V59.083H163.723V58.1903H166.355ZM164.052 56.0666V61.1504H162.92V56.0666H164.052ZM167.172 56.0666V61.1504H166.04V56.0666H167.172ZM171.246 60.1308V57.7064C171.246 57.5247 171.213 57.3681 171.147 57.2365C171.081 57.105 170.981 57.0032 170.846 56.9311C170.715 56.8591 170.549 56.823 170.348 56.823C170.163 56.823 170.004 56.8544 169.869 56.917C169.734 56.9797 169.629 57.0642 169.554 57.1707C169.479 57.2772 169.441 57.3978 169.441 57.5325H168.314C168.314 57.332 168.362 57.1378 168.459 56.9499C168.557 56.762 168.698 56.5944 168.882 56.4472C169.067 56.2999 169.288 56.184 169.545 56.0995C169.802 56.0149 170.09 55.9726 170.409 55.9726C170.792 55.9726 171.13 56.0368 171.424 56.1652C171.722 56.2937 171.955 56.4879 172.124 56.7479C172.297 57.0047 172.383 57.3273 172.383 57.7158V59.9758C172.383 60.2076 172.398 60.4159 172.43 60.6007C172.464 60.7823 172.513 60.9405 172.575 61.0752V61.1504H171.415C171.362 61.0282 171.319 60.8732 171.288 60.6852C171.26 60.4942 171.246 60.3094 171.246 60.1308ZM171.41 58.0588L171.42 58.7588H170.607C170.397 58.7588 170.212 58.7792 170.052 58.8199C169.893 58.8575 169.759 58.9139 169.653 58.9891C169.546 59.0642 169.467 59.1551 169.413 59.2616C169.36 59.3681 169.333 59.4887 169.333 59.6234C169.333 59.7581 169.365 59.8818 169.427 59.9946C169.49 60.1042 169.581 60.1903 169.7 60.253C169.822 60.3156 169.969 60.3469 170.142 60.3469C170.373 60.3469 170.575 60.3 170.748 60.206C170.923 60.1089 171.061 59.9914 171.161 59.8536C171.261 59.7126 171.315 59.5795 171.321 59.4542L171.687 59.957C171.65 60.0854 171.586 60.2232 171.495 60.3704C171.404 60.5177 171.285 60.6586 171.138 60.7933C170.994 60.9249 170.82 61.0329 170.616 61.1175C170.416 61.2021 170.184 61.2444 169.921 61.2444C169.589 61.2444 169.293 61.1786 169.033 61.047C168.773 60.9123 168.569 60.7322 168.422 60.5067C168.275 60.278 168.201 60.0196 168.201 59.7314C168.201 59.4621 168.251 59.224 168.351 59.0173C168.455 58.8074 168.605 58.632 168.802 58.491C169.003 58.3501 169.247 58.2436 169.535 58.1715C169.824 58.0963 170.153 58.0588 170.522 58.0588H171.41ZM174.638 58.6649H175.813L174.37 61.1504H173.2L174.638 58.6649ZM175.465 56.0666H177.645V61.1504H176.517V56.9593H175.465C175.252 56.9593 175.077 56.9969 174.939 57.0721C174.801 57.1441 174.699 57.2396 174.633 57.3587C174.568 57.4746 174.535 57.5936 174.535 57.7158C174.535 57.8379 174.564 57.9554 174.624 58.0682C174.687 58.1809 174.782 58.2733 174.911 58.3454C175.042 58.4174 175.207 58.4534 175.404 58.4534H176.898V59.2804H175.404C175.091 59.2804 174.81 59.2412 174.563 59.1629C174.315 59.0815 174.106 58.9703 173.933 58.8293C173.761 58.6852 173.629 58.5176 173.539 58.3266C173.448 58.1324 173.402 57.9209 173.402 57.6923C173.402 57.4573 173.449 57.2412 173.543 57.0439C173.637 56.8465 173.772 56.6743 173.947 56.527C174.126 56.3798 174.342 56.267 174.596 56.1887C174.853 56.1073 175.142 56.0666 175.465 56.0666ZM182.471 59.4965L184.467 56.0666H185.6V61.1504H184.467V57.7158L182.471 61.1504H181.338V56.0666H182.471V59.4965ZM190.27 58.1903V59.083H187.639V58.1903H190.27ZM187.968 56.0666V61.1504H186.835V56.0666H187.968ZM191.088 56.0666V61.1504H189.955V56.0666H191.088ZM194.654 56.0666V61.1504H193.517V56.0666H194.654ZM196.322 56.0666V56.9593H191.877V56.0666H196.322ZM198.972 61.2444C198.596 61.2444 198.256 61.1833 197.952 61.0611C197.651 60.9358 197.395 60.762 197.182 60.5396C196.972 60.3172 196.81 60.0556 196.698 59.7549C196.585 59.4542 196.529 59.13 196.529 58.7823V58.5944C196.529 58.1966 196.586 57.8364 196.702 57.5137C196.818 57.1911 196.98 56.9154 197.186 56.6868C197.393 56.455 197.637 56.278 197.919 56.1558C198.201 56.0337 198.507 55.9726 198.836 55.9726C199.199 55.9726 199.517 56.0337 199.789 56.1558C200.062 56.278 200.287 56.4503 200.466 56.6727C200.648 56.892 200.782 57.1535 200.87 57.4573C200.961 57.7612 201.006 58.0963 201.006 58.4628V58.9468H197.078V58.1339H199.888V58.0447C199.882 57.8411 199.841 57.65 199.766 57.4714C199.694 57.2929 199.583 57.1488 199.432 57.0392C199.282 56.9295 199.081 56.8747 198.831 56.8747C198.643 56.8747 198.475 56.9154 198.328 56.9969C198.184 57.0752 198.063 57.1895 197.966 57.3399C197.869 57.4902 197.794 57.6719 197.741 57.8849C197.691 58.0948 197.666 58.3313 197.666 58.5944V58.7823C197.666 59.0047 197.695 59.2115 197.755 59.4025C197.817 59.5905 197.908 59.7549 198.027 59.8959C198.146 60.0368 198.29 60.148 198.46 60.2295C198.629 60.3078 198.821 60.3469 199.038 60.3469C199.31 60.3469 199.553 60.2921 199.766 60.1825C199.979 60.0729 200.164 59.9178 200.32 59.7173L200.917 60.2953C200.807 60.455 200.665 60.6085 200.489 60.7557C200.314 60.8998 200.099 61.0173 199.846 61.1081C199.595 61.1989 199.304 61.2444 198.972 61.2444ZM205.273 56.0666V56.9687H203.055V61.1504H201.922V56.0666H205.273ZM207.067 57.0439V63.105H205.935V56.0666H206.978L207.067 57.0439ZM210.38 58.5615V58.6602C210.38 59.0298 210.336 59.3728 210.248 59.6891C210.164 60.0024 210.037 60.2765 209.868 60.5114C209.702 60.7432 209.496 60.9233 209.252 61.0517C209.008 61.1801 208.726 61.2444 208.406 61.2444C208.09 61.2444 207.813 61.1864 207.575 61.0705C207.34 60.9515 207.141 60.7839 206.978 60.5678C206.815 60.3516 206.684 60.0979 206.583 59.8066C206.486 59.5122 206.417 59.1895 206.377 58.8387V58.4581C206.417 58.0854 206.486 57.7471 206.583 57.4432C206.684 57.1394 206.815 56.8779 206.978 56.6586C207.141 56.4393 207.34 56.2702 207.575 56.1511C207.81 56.0321 208.084 55.9726 208.397 55.9726C208.717 55.9726 209 56.0353 209.247 56.1605C209.495 56.2827 209.703 56.4581 209.872 56.6868C210.042 56.9123 210.168 57.1848 210.253 57.5043C210.338 57.8207 210.38 58.1731 210.38 58.5615ZM209.247 58.6602V58.5615C209.247 58.3266 209.226 58.1089 209.182 57.9084C209.138 57.7048 209.069 57.5263 208.975 57.3728C208.881 57.2193 208.76 57.1003 208.613 57.0157C208.469 56.928 208.295 56.8841 208.092 56.8841C207.891 56.8841 207.719 56.9186 207.575 56.9875C207.431 57.0533 207.31 57.1457 207.213 57.2647C207.116 57.3837 207.041 57.5231 206.987 57.6829C206.934 57.8395 206.897 58.0102 206.875 58.195V59.1065C206.912 59.3321 206.977 59.5388 207.067 59.7267C207.158 59.9147 207.287 60.065 207.453 60.1778C207.622 60.2874 207.838 60.3422 208.101 60.3422C208.305 60.3422 208.478 60.2984 208.623 60.2107C208.767 60.123 208.884 60.0024 208.975 59.8489C209.069 59.6923 209.138 59.5122 209.182 59.3086C209.226 59.105 209.247 58.8888 209.247 58.6602ZM214.209 60.1308V57.7064C214.209 57.5247 214.176 57.3681 214.11 57.2365C214.045 57.105 213.944 57.0032 213.81 56.9311C213.678 56.8591 213.512 56.823 213.312 56.823C213.127 56.823 212.967 56.8544 212.832 56.917C212.698 56.9797 212.593 57.0642 212.518 57.1707C212.442 57.2772 212.405 57.3978 212.405 57.5325H211.277C211.277 57.332 211.326 57.1378 211.423 56.9499C211.52 56.762 211.661 56.5944 211.846 56.4472C212.031 56.2999 212.251 56.184 212.508 56.0995C212.765 56.0149 213.053 55.9726 213.373 55.9726C213.755 55.9726 214.093 56.0368 214.388 56.1652C214.685 56.2937 214.919 56.4879 215.088 56.7479C215.26 57.0047 215.346 57.3273 215.346 57.7158V59.9758C215.346 60.2076 215.362 60.4159 215.393 60.6007C215.428 60.7823 215.476 60.9405 215.539 61.0752V61.1504H214.378C214.325 61.0282 214.283 60.8732 214.251 60.6852C214.223 60.4942 214.209 60.3094 214.209 60.1308ZM214.374 58.0588L214.383 58.7588H213.57C213.36 58.7588 213.175 58.7792 213.016 58.8199C212.856 58.8575 212.723 58.9139 212.616 58.9891C212.51 59.0642 212.43 59.1551 212.377 59.2616C212.323 59.3681 212.297 59.4887 212.297 59.6234C212.297 59.7581 212.328 59.8818 212.391 59.9946C212.453 60.1042 212.544 60.1903 212.663 60.253C212.785 60.3156 212.933 60.3469 213.105 60.3469C213.337 60.3469 213.539 60.3 213.711 60.206C213.886 60.1089 214.024 59.9914 214.125 59.8536C214.225 59.7126 214.278 59.5795 214.284 59.4542L214.651 59.957C214.613 60.0854 214.549 60.2232 214.458 60.3704C214.367 60.5177 214.248 60.6586 214.101 60.7933C213.957 60.9249 213.783 61.0329 213.58 61.1175C213.379 61.2021 213.147 61.2444 212.884 61.2444C212.552 61.2444 212.256 61.1786 211.996 61.047C211.736 60.9123 211.533 60.7322 211.385 60.5067C211.238 60.278 211.164 60.0196 211.164 59.7314C211.164 59.4621 211.215 59.224 211.315 59.0173C211.418 58.8074 211.569 58.632 211.766 58.491C211.966 58.3501 212.211 58.2436 212.499 58.1715C212.787 58.0963 213.116 58.0588 213.486 58.0588H214.374ZM216.568 61.1504V56.0666H217.7V60.2483H219.692V56.0666H220.829V61.1504H216.568ZM221.52 60.253L221.431 62.6586H220.392V61.1504H219.782V60.253H221.52ZM223.489 59.4965L225.486 56.0666H226.618V61.1504H225.486V57.7158L223.489 61.1504H222.356V56.0666H223.489V59.4965ZM228.887 58.6649H230.062L228.62 61.1504H227.45L228.887 58.6649ZM229.714 56.0666H231.894V61.1504H230.767V56.9593H229.714C229.501 56.9593 229.326 56.9969 229.188 57.0721C229.05 57.1441 228.948 57.2396 228.883 57.3587C228.817 57.4746 228.784 57.5936 228.784 57.7158C228.784 57.8379 228.814 57.9554 228.873 58.0682C228.936 58.1809 229.031 58.2733 229.16 58.3454C229.291 58.4174 229.456 58.4534 229.653 58.4534H231.147V59.2804H229.653C229.34 59.2804 229.06 59.2412 228.812 59.1629C228.565 59.0815 228.355 58.9703 228.183 58.8293C228.01 58.6852 227.879 58.5176 227.788 58.3266C227.697 58.1324 227.652 57.9209 227.652 57.6923C227.652 57.4573 227.699 57.2412 227.793 57.0439C227.887 56.8465 228.021 56.6743 228.197 56.527C228.375 56.3798 228.591 56.267 228.845 56.1887C229.102 56.1073 229.392 56.0666 229.714 56.0666ZM237.627 60.3422C237.811 60.3422 237.977 60.3062 238.125 60.2342C238.275 60.159 238.396 60.0556 238.486 59.9241C238.58 59.7925 238.632 59.6406 238.642 59.4683H239.708C239.702 59.7972 239.605 60.0964 239.417 60.3657C239.229 60.6351 238.98 60.8497 238.67 61.0094C238.36 61.1661 238.017 61.2444 237.641 61.2444C237.252 61.2444 236.914 61.1786 236.626 61.047C236.338 60.9123 236.098 60.7275 235.907 60.4926C235.716 60.2577 235.572 59.9867 235.475 59.6797C235.381 59.3728 235.334 59.0439 235.334 58.6931V58.5286C235.334 58.1778 235.381 57.8489 235.475 57.5419C235.572 57.2318 235.716 56.9593 235.907 56.7244C236.098 56.4894 236.338 56.3062 236.626 56.1746C236.914 56.04 237.251 55.9726 237.636 55.9726C238.043 55.9726 238.4 56.054 238.707 56.2169C239.014 56.3767 239.255 56.6006 239.431 56.8888C239.609 57.1739 239.702 57.5059 239.708 57.8849H238.642C238.632 57.697 238.585 57.5278 238.501 57.3775C238.419 57.224 238.303 57.1018 238.153 57.011C238.006 56.9201 237.829 56.8747 237.622 56.8747C237.393 56.8747 237.204 56.9217 237.053 57.0157C236.903 57.1065 236.786 57.2318 236.701 57.3916C236.616 57.5482 236.555 57.7252 236.518 57.9225C236.483 58.1167 236.466 58.3187 236.466 58.5286V58.6931C236.466 58.9029 236.483 59.1065 236.518 59.3039C236.552 59.5012 236.612 59.6782 236.696 59.8348C236.784 59.9883 236.903 60.112 237.053 60.206C237.204 60.2968 237.395 60.3422 237.627 60.3422ZM245.05 60.3422C245.235 60.3422 245.401 60.3062 245.548 60.2342C245.699 60.159 245.819 60.0556 245.91 59.9241C246.004 59.7925 246.056 59.6406 246.065 59.4683H247.132C247.125 59.7972 247.028 60.0964 246.84 60.3657C246.653 60.6351 246.403 60.8497 246.093 61.0094C245.783 61.1661 245.44 61.2444 245.064 61.2444C244.676 61.2444 244.338 61.1786 244.05 61.047C243.761 60.9123 243.522 60.7275 243.331 60.4926C243.14 60.2577 242.995 59.9867 242.898 59.6797C242.804 59.3728 242.757 59.0439 242.757 58.6931V58.5286C242.757 58.1778 242.804 57.8489 242.898 57.5419C242.995 57.2318 243.14 56.9593 243.331 56.7244C243.522 56.4894 243.761 56.3062 244.05 56.1746C244.338 56.04 244.674 55.9726 245.06 55.9726C245.467 55.9726 245.824 56.054 246.131 56.2169C246.438 56.3767 246.679 56.6006 246.855 56.8888C247.033 57.1739 247.125 57.5059 247.132 57.8849H246.065C246.056 57.697 246.009 57.5278 245.924 57.3775C245.843 57.224 245.727 57.1018 245.577 57.011C245.429 56.9201 245.252 56.8747 245.046 56.8747C244.817 56.8747 244.627 56.9217 244.477 57.0157C244.327 57.1065 244.209 57.2318 244.125 57.3916C244.04 57.5482 243.979 57.7252 243.941 57.9225C243.907 58.1167 243.89 58.3187 243.89 58.5286V58.6931C243.89 58.9029 243.907 59.1065 243.941 59.3039C243.976 59.5012 244.035 59.6782 244.12 59.8348C244.208 59.9883 244.327 60.112 244.477 60.206C244.627 60.2968 244.819 60.3422 245.05 60.3422ZM250.867 60.1308V57.7064C250.867 57.5247 250.834 57.3681 250.768 57.2365C250.703 57.105 250.602 57.0032 250.468 56.9311C250.336 56.8591 250.17 56.823 249.97 56.823C249.785 56.823 249.625 56.8544 249.49 56.917C249.356 56.9797 249.251 57.0642 249.176 57.1707C249.1 57.2772 249.063 57.3978 249.063 57.5325H247.935C247.935 57.332 247.984 57.1378 248.081 56.9499C248.178 56.762 248.319 56.5944 248.504 56.4472C248.689 56.2999 248.909 56.184 249.166 56.0995C249.423 56.0149 249.711 55.9726 250.031 55.9726C250.413 55.9726 250.751 56.0368 251.046 56.1652C251.343 56.2937 251.577 56.4879 251.746 56.7479C251.918 57.0047 252.004 57.3273 252.004 57.7158V59.9758C252.004 60.2076 252.02 60.4159 252.051 60.6007C252.086 60.7823 252.134 60.9405 252.197 61.0752V61.1504H251.036C250.983 61.0282 250.941 60.8732 250.909 60.6852C250.881 60.4942 250.867 60.3094 250.867 60.1308ZM251.032 58.0588L251.041 58.7588H250.228C250.018 58.7588 249.833 58.7792 249.674 58.8199C249.514 58.8575 249.381 58.9139 249.274 58.9891C249.168 59.0642 249.088 59.1551 249.035 59.2616C248.981 59.3681 248.955 59.4887 248.955 59.6234C248.955 59.7581 248.986 59.8818 249.049 59.9946C249.111 60.1042 249.202 60.1903 249.321 60.253C249.443 60.3156 249.591 60.3469 249.763 60.3469C249.995 60.3469 250.197 60.3 250.369 60.206C250.544 60.1089 250.682 59.9914 250.783 59.8536C250.883 59.7126 250.936 59.5795 250.942 59.4542L251.309 59.957C251.271 60.0854 251.207 60.2232 251.116 60.3704C251.025 60.5177 250.906 60.6586 250.759 60.7933C250.615 60.9249 250.441 61.0329 250.237 61.1175C250.037 61.2021 249.805 61.2444 249.542 61.2444C249.21 61.2444 248.914 61.1786 248.654 61.047C248.394 60.9123 248.19 60.7322 248.043 60.5067C247.896 60.278 247.822 60.0196 247.822 59.7314C247.822 59.4621 247.873 59.224 247.973 59.0173C248.076 58.8074 248.227 58.632 248.424 58.491C248.624 58.3501 248.869 58.2436 249.157 58.1715C249.445 58.0963 249.774 58.0588 250.144 58.0588H251.032ZM254.358 59.4965L256.355 56.0666H257.487V61.1504H256.355V57.7158L254.358 61.1504H253.226V56.0666H254.358V59.4965ZM256.054 54.112H256.895C256.895 54.372 256.833 54.6022 256.707 54.8027C256.585 55 256.41 55.1551 256.181 55.2678C255.956 55.3806 255.686 55.437 255.373 55.437C254.9 55.437 254.526 55.3148 254.25 55.0705C253.978 54.823 253.841 54.5035 253.841 54.112H254.682C254.682 54.2874 254.734 54.4424 254.837 54.5771C254.944 54.7087 255.122 54.7745 255.373 54.7745C255.62 54.7745 255.796 54.7087 255.899 54.5771C256.003 54.4424 256.054 54.2874 256.054 54.112ZM261.044 56.0666V61.1504H259.907V56.0666H261.044ZM262.712 56.0666V56.9593H258.267V56.0666H262.712ZM263.074 58.6649V58.5568C263.074 58.1903 263.127 57.8505 263.234 57.5372C263.34 57.2208 263.494 56.9468 263.694 56.715C263.898 56.48 264.145 56.2984 264.436 56.1699C264.731 56.0384 265.063 55.9726 265.433 55.9726C265.805 55.9726 266.137 56.0384 266.429 56.1699C266.723 56.2984 266.972 56.48 267.176 56.715C267.379 56.9468 267.534 57.2208 267.641 57.5372C267.747 57.8505 267.801 58.1903 267.801 58.5568V58.6649C267.801 59.0314 267.747 59.3712 267.641 59.6844C267.534 59.9977 267.379 60.2718 267.176 60.5067C266.972 60.7385 266.725 60.9202 266.433 61.0517C266.142 61.1801 265.812 61.2444 265.442 61.2444C265.069 61.2444 264.736 61.1801 264.441 61.0517C264.15 60.9202 263.902 60.7385 263.699 60.5067C263.495 60.2718 263.34 59.9977 263.234 59.6844C263.127 59.3712 263.074 59.0314 263.074 58.6649ZM264.206 58.5568V58.6649C264.206 58.8935 264.23 59.1097 264.277 59.3133C264.324 59.5169 264.397 59.6954 264.498 59.8489C264.598 60.0024 264.726 60.123 264.883 60.2107C265.039 60.2984 265.226 60.3422 265.442 60.3422C265.652 60.3422 265.833 60.2984 265.987 60.2107C266.144 60.123 266.272 60.0024 266.372 59.8489C266.472 59.6954 266.546 59.5169 266.593 59.3133C266.643 59.1097 266.668 58.8935 266.668 58.6649V58.5568C266.668 58.3313 266.643 58.1183 266.593 57.9178C266.546 57.7142 266.471 57.5341 266.368 57.3775C266.267 57.2208 266.139 57.0987 265.982 57.011C265.829 56.9201 265.646 56.8747 265.433 56.8747C265.22 56.8747 265.035 56.9201 264.878 57.011C264.725 57.0987 264.598 57.2208 264.498 57.3775C264.397 57.5341 264.324 57.7142 264.277 57.9178C264.23 58.1183 264.206 58.3313 264.206 58.5568ZM271.771 59.7784L273.284 56.0666H274.266L272.156 61.1504H271.386L269.281 56.0666H270.263L271.771 59.7784ZM269.971 56.0666V61.1504H268.839V56.0666H269.971ZM273.57 61.1504V56.0666H274.707V61.1504H273.57Z" fill="black"/>
</g>
<defs>
<clipPath id="clip0_27_2138">
<rect width="275" height="72" fill="white"/>
</clipPath>
</defs>
</svg>
