<svg width="128" height="45" viewBox="0 0 128 45" fill="none" xmlns="http://www.w3.org/2000/svg">
<g clip-path="url(#clip0_27_2914)">
<g clip-path="url(#clip1_27_2914)">
<g clip-path="url(#clip2_27_2914)">
<path fill-rule="evenodd" clip-rule="evenodd" d="M43 11.5902C43 11.9164 42.8704 12.2293 42.6397 12.4599C42.4091 12.6906 42.0962 12.8202 41.77 12.8202H41.65L32.77 32.2202C32.9658 32.425 33.0849 32.6911 33.1072 32.9736C33.1294 33.2561 33.0535 33.5375 32.8922 33.7705C32.7308 34.0034 32.494 34.1735 32.2218 34.252C31.9496 34.3305 31.6586 34.3127 31.398 34.2014C31.1374 34.0901 30.9232 33.8923 30.7916 33.6414C30.66 33.3905 30.6191 33.1018 30.6758 32.8242C30.7325 32.5466 30.8833 32.297 31.1027 32.1177C31.3221 31.9385 31.5967 31.8404 31.88 31.8402H31.96L40.85 12.4202C40.7182 12.2716 40.6243 12.0934 40.5764 11.9007C40.5285 11.7079 40.528 11.5065 40.5748 11.3135C40.6217 11.1205 40.7146 10.9418 40.8456 10.7925C40.9766 10.6433 41.1418 10.5279 41.3271 10.4564C41.5124 10.3849 41.7122 10.3593 41.9095 10.3818C42.1068 10.4043 42.2957 10.4743 42.4601 10.5857C42.6245 10.6971 42.7595 10.8467 42.8535 11.0216C42.9475 11.1965 42.9978 11.3916 43 11.5902ZM7.89 15.5302H7.79L1.44 1.6302H11.71C11.8148 1.89682 12.0094 2.11849 12.2602 2.25697C12.511 2.39544 12.8023 2.44203 13.0837 2.38869C13.3652 2.33535 13.6192 2.18544 13.802 1.96481C13.9847 1.74418 14.0847 1.46668 14.0847 1.1802C14.0847 0.893714 13.9847 0.616216 13.802 0.395588C13.6192 0.17496 13.3652 0.0250419 13.0837 -0.0282963C12.8023 -0.0816344 12.511 -0.035047 12.2602 0.103427C12.0094 0.241901 11.8148 0.463575 11.71 0.730197H0L0.41 1.6302L7 15.9402C6.81206 16.1503 6.70201 16.4187 6.68827 16.7002C6.67453 16.9818 6.75794 17.2596 6.92453 17.487C7.09112 17.7144 7.33078 17.8777 7.6034 17.9496C7.87601 18.0214 8.16503 17.9974 8.42207 17.8816C8.6791 17.7658 8.88855 17.5652 9.01536 17.3134C9.14216 17.0616 9.17862 16.7739 9.11864 16.4985C9.05865 16.223 8.90586 15.9765 8.68583 15.8002C8.46581 15.624 8.19192 15.5286 7.91 15.5302H7.89ZM7.38 5.4502C7.38 5.20693 7.30786 4.96912 7.17271 4.76685C7.03755 4.56457 6.84545 4.40692 6.6207 4.31383C6.39595 4.22073 6.14864 4.19637 5.91004 4.24383C5.67144 4.29129 5.45228 4.40844 5.28026 4.58046C5.10824 4.75247 4.99109 4.97164 4.94363 5.21024C4.89617 5.44883 4.92053 5.69615 5.01363 5.9209C5.10672 6.14565 5.26438 6.33775 5.46665 6.47291C5.66892 6.60806 5.90673 6.6802 6.15 6.6802L21.44 40.0002H25.62L33.53 22.7102C33.8152 22.71 34.0914 22.6108 34.3115 22.4295C34.5316 22.2482 34.6818 21.996 34.7365 21.7161C34.7912 21.4362 34.747 21.1461 34.6113 20.8952C34.4757 20.6444 34.2571 20.4484 33.993 20.3409C33.7289 20.2334 33.4356 20.2211 33.1634 20.3059C32.8911 20.3908 32.6568 20.5676 32.5005 20.8061C32.3442 21.0446 32.2757 21.3301 32.3066 21.6135C32.3375 21.897 32.466 22.161 32.67 22.3602L25.05 39.1102H22L7 6.3502C7.12145 6.23409 7.21783 6.09433 7.28319 5.93954C7.34854 5.78475 7.38149 5.61821 7.38 5.4502ZM26.23 41.6002C25.9647 41.6 25.7065 41.6856 25.4938 41.8442C25.2812 42.0028 25.1255 42.2259 25.05 42.4802H20.1L12.15 25.1602C12.3299 24.9456 12.4311 24.676 12.437 24.396C12.4428 24.116 12.353 23.8424 12.1823 23.6204C12.0115 23.3984 11.7702 23.2413 11.4981 23.1751C11.226 23.1089 10.9394 23.1375 10.6858 23.2562C10.4322 23.3749 10.2266 23.5766 10.1032 23.828C9.97974 24.0794 9.94577 24.3654 10.0069 24.6386C10.068 24.9119 10.2206 25.1562 10.4393 25.331C10.6581 25.5059 10.93 25.6008 11.21 25.6002H11.36L19.52 43.3902H25.12C25.2179 43.5861 25.3664 43.7523 25.5501 43.8717C25.7338 43.991 25.9461 44.0591 26.1649 44.069C26.3837 44.0788 26.6012 44.03 26.7949 43.9277C26.9885 43.8253 27.1514 43.6731 27.2665 43.4868C27.3817 43.3005 27.445 43.0868 27.4499 42.8678C27.4548 42.6488 27.4011 42.4324 27.2944 42.2411C27.1877 42.0498 27.0319 41.8905 26.843 41.7795C26.6541 41.6686 26.439 41.6102 26.22 41.6102L26.23 41.6002ZM18 21.1902H17.92L11.07 6.3202C11.2768 6.12295 11.4084 5.85985 11.4423 5.5761C11.4762 5.29235 11.4103 5.00565 11.2558 4.76524C11.1013 4.52483 10.8679 4.34572 10.5957 4.25866C10.3235 4.17161 10.0295 4.18204 9.76419 4.28817C9.49886 4.3943 9.27876 4.58951 9.1417 4.84027C9.00464 5.09102 8.95917 5.38167 9.0131 5.66231C9.06703 5.94294 9.21699 6.19604 9.43722 6.37814C9.65746 6.56024 9.93423 6.65997 10.22 6.6602L17.05 21.5802C16.8542 21.785 16.7351 22.0511 16.7128 22.3336C16.6906 22.616 16.7665 22.8975 16.9279 23.1305C17.0892 23.3634 17.326 23.5335 17.5982 23.612C17.8704 23.6905 18.1614 23.6727 18.422 23.5614C18.6826 23.4501 18.8968 23.2523 19.0284 23.0014C19.16 22.7505 19.2009 22.4618 19.1442 22.1842C19.0875 21.9066 18.9367 21.657 18.7173 21.4777C18.4979 21.2985 18.2233 21.2004 17.94 21.2002L18 21.1902ZM46 0.000197481C45.7611 -0.00100767 45.527 0.0673843 45.3264 0.19702C45.1257 0.326656 44.9671 0.511925 44.87 0.730197H35.17L23.59 25.9102L18.28 14.3102C18.4788 14.1069 18.6011 13.8409 18.6259 13.5576C18.6507 13.2743 18.5766 12.9912 18.4162 12.7564C18.2558 12.5216 18.019 12.3496 17.746 12.2697C17.4731 12.1899 17.1809 12.207 16.9192 12.3183C16.6575 12.4296 16.4425 12.6282 16.3107 12.8802C16.1789 13.1322 16.1385 13.422 16.1963 13.7005C16.2542 13.9789 16.4067 14.2287 16.628 14.4073C16.8493 14.5859 17.1256 14.6824 17.41 14.6802H17.47L23.6 28.0702L35.72 1.6402H44.8C44.8747 1.8511 45.0055 2.03764 45.1784 2.17972C45.3512 2.3218 45.5595 2.41404 45.7809 2.44651C46.0023 2.47898 46.2283 2.45045 46.4347 2.36399C46.6411 2.27753 46.8199 2.13642 46.9521 1.95586C47.0842 1.77529 47.1646 1.5621 47.1845 1.33924C47.2045 1.11639 47.1633 0.892314 47.0653 0.691141C46.9674 0.489968 46.8164 0.31932 46.6287 0.19757C46.441 0.0758195 46.2236 0.0075796 46 0.000197481ZM21.43 28.9502C21.1038 28.9502 20.7909 29.0798 20.5603 29.3105C20.3296 29.5411 20.2 29.854 20.2 30.1802C20.2 30.5064 20.3296 30.8193 20.5603 31.0499C20.7909 31.2806 21.1038 31.4102 21.43 31.4102H21.53L23.53 35.9102L37.75 5.0002H40.75L37.25 12.6402H37.15C36.8679 12.6407 36.5945 12.7382 36.3757 12.9163C36.157 13.0944 36.006 13.3423 35.9483 13.6184C35.8906 13.8946 35.9295 14.1822 36.0586 14.433C36.1876 14.6838 36.399 14.8827 36.6573 14.9962C36.9156 15.1097 37.205 15.131 37.4771 15.0565C37.7492 14.982 37.9874 14.8162 38.1518 14.587C38.3162 14.3577 38.3968 14.0789 38.3801 13.7973C38.3634 13.5157 38.2504 13.2484 38.06 13.0402L42.15 4.1002H37.15L23.57 33.7002L22.34 31.0002C22.5011 30.824 22.6075 30.6047 22.6461 30.369C22.6847 30.1334 22.6539 29.8916 22.5574 29.6732C22.4609 29.4548 22.3029 29.2691 22.1027 29.139C21.9025 29.0088 21.6688 28.9398 21.43 28.9402V28.9502Z" fill="url(#paint0_linear_27_2914)"/>
<path fill-rule="evenodd" clip-rule="evenodd" d="M47 41.1901V42.8301H50.45C50.5815 42.8373 50.7125 42.8097 50.83 42.7501C50.9206 42.7014 50.9992 42.6331 51.06 42.5501C51.1147 42.4686 51.1521 42.3767 51.17 42.2801C51.2102 42.1057 51.2102 41.9245 51.17 41.7501C51.1521 41.6536 51.1147 41.5617 51.06 41.4801C50.9992 41.3971 50.9206 41.3288 50.83 41.2801C50.7124 41.221 50.5814 41.1934 50.45 41.2001L47 41.1901ZM51.83 42.0101C51.829 42.1799 51.802 42.3485 51.75 42.5101C51.6986 42.6748 51.6209 42.8302 51.52 42.9701C51.42 43.1092 51.2944 43.228 51.15 43.3201C51.0024 43.4118 50.8336 43.4635 50.66 43.4701H46.66C46.5751 43.4701 46.4937 43.4364 46.4337 43.3764C46.3737 43.3164 46.34 43.235 46.34 43.1501V40.8701C46.34 40.7852 46.3737 40.7039 46.4337 40.6438C46.4937 40.5838 46.5751 40.5501 46.66 40.5501H50.58C50.7619 40.5453 50.9417 40.5903 51.1 40.6801C51.2517 40.77 51.3843 40.8889 51.49 41.0301C51.5994 41.1714 51.684 41.3304 51.74 41.5001C51.7931 41.6649 51.8201 41.837 51.82 42.0101H51.83ZM54.16 43.1501C54.16 43.2363 54.1257 43.319 54.0648 43.3799C54.0038 43.4409 53.9212 43.4751 53.835 43.4751C53.7488 43.4751 53.6661 43.4409 53.6052 43.3799C53.5442 43.319 53.51 43.2363 53.51 43.1501V40.8701C53.51 40.7839 53.5442 40.7013 53.6052 40.6403C53.6661 40.5794 53.7488 40.5451 53.835 40.5451C53.9212 40.5451 54.0038 40.5794 54.0648 40.6403C54.1257 40.7013 54.16 40.7839 54.16 40.8701V43.1501ZM57.61 42.0001C57.61 41.9152 57.6437 41.8339 57.7037 41.7738C57.7637 41.7138 57.8451 41.6801 57.93 41.6801H60.5C60.6096 41.6777 60.7186 41.6981 60.82 41.7401C60.9167 41.7797 61.0049 41.8374 61.08 41.9101C61.1537 41.9843 61.2116 42.0728 61.25 42.1701C61.2904 42.2719 61.3108 42.3806 61.31 42.4901V42.6401C61.3108 42.7497 61.2904 42.8583 61.25 42.9601C61.2116 43.0574 61.1537 43.1459 61.08 43.2201C61.0049 43.2928 60.9167 43.3505 60.82 43.3901C60.7186 43.4321 60.6096 43.4526 60.5 43.4501H57C56.8276 43.4541 56.6577 43.409 56.51 43.3201C56.3644 43.2294 56.2386 43.1104 56.14 42.9701C56.0386 42.8268 55.961 42.6681 55.91 42.5001C55.8579 42.3351 55.831 42.1632 55.83 41.9901C55.8299 41.817 55.8569 41.6449 55.91 41.4801C55.9659 41.3104 56.0505 41.1514 56.16 41.0101C56.2657 40.8689 56.3982 40.75 56.55 40.6601C56.7082 40.5703 56.888 40.5253 57.07 40.5301H61C61.042 40.5301 61.0836 40.5384 61.1224 40.5545C61.1612 40.5706 61.1965 40.5941 61.2262 40.6238C61.256 40.6536 61.2795 40.6888 61.2956 40.7277C61.3117 40.7665 61.32 40.8081 61.32 40.8501C61.32 40.8921 61.3117 40.9337 61.2956 40.9726C61.2795 41.0114 61.256 41.0467 61.2262 41.0764C61.1965 41.1061 61.1612 41.1297 61.1224 41.1458C61.0836 41.1618 61.042 41.1701 61 41.1701H57.22C57.0885 41.163 56.9574 41.1905 56.84 41.2501C56.7495 41.2991 56.671 41.3674 56.61 41.4501C56.5553 41.5317 56.5178 41.6236 56.5 41.7201C56.4598 41.8945 56.4598 42.0757 56.5 42.2501C56.5178 42.3467 56.5553 42.4386 56.61 42.5201C56.671 42.6029 56.7495 42.6712 56.84 42.7201C56.9574 42.7797 57.0885 42.8073 57.22 42.8001H60.48C60.5069 42.7991 60.5334 42.7923 60.5575 42.7802C60.5817 42.7681 60.6029 42.7511 60.62 42.7301C60.6596 42.6824 60.6809 42.6221 60.68 42.5601C60.6793 42.4984 60.6582 42.4386 60.62 42.3901C60.6024 42.3673 60.5796 42.349 60.5535 42.3368C60.5274 42.3247 60.4987 42.3189 60.47 42.3201H57.93C57.8451 42.3201 57.7637 42.2864 57.7037 42.2264C57.6437 42.1664 57.61 42.085 57.61 42.0001ZM63.61 43.1401C63.61 43.2263 63.5757 43.309 63.5148 43.3699C63.4538 43.4309 63.3712 43.4651 63.285 43.4651C63.1988 43.4651 63.1161 43.4309 63.0552 43.3699C62.9942 43.309 62.96 43.2263 62.96 43.1401V40.8701C62.96 40.7839 62.9942 40.7013 63.0552 40.6403C63.1161 40.5794 63.1988 40.5451 63.285 40.5451C63.3712 40.5451 63.4538 40.5794 63.5148 40.6403C63.5757 40.7013 63.61 40.7839 63.61 40.8701V43.1501V43.1401ZM70.25 40.5301C70.3348 40.5301 70.4162 40.5638 70.4762 40.6238C70.5362 40.6839 70.57 40.7652 70.57 40.8501C70.5707 40.891 70.5632 40.9316 70.5477 40.9694C70.5322 41.0072 70.5092 41.0415 70.48 41.0701C70.4244 41.1278 70.3498 41.1634 70.27 41.1701H69C68.8833 41.175 68.7697 41.2094 68.67 41.2701C68.5892 41.321 68.5209 41.3894 68.47 41.4701C68.4213 41.5501 68.3874 41.6381 68.37 41.7301C68.3618 41.8166 68.3618 41.9036 68.37 41.9901V43.1301C68.37 43.2163 68.3357 43.299 68.2748 43.3599C68.2138 43.4209 68.1312 43.4551 68.045 43.4551C67.9588 43.4551 67.8761 43.4209 67.8152 43.3599C67.7542 43.299 67.72 43.2163 67.72 43.1301V42.0001C67.7191 41.8586 67.7359 41.7175 67.77 41.5801C67.8049 41.4401 67.8587 41.3056 67.93 41.1801H65.73C65.6451 41.1801 65.5637 41.1464 65.5037 41.0864C65.4437 41.0264 65.41 40.945 65.41 40.8601C65.41 40.7752 65.4437 40.6939 65.5037 40.6338C65.5637 40.5738 65.6451 40.5401 65.73 40.5401L70.25 40.5301ZM73.41 42.7301C73.4123 42.6357 73.4471 42.545 73.5086 42.4733C73.57 42.4016 73.6543 42.3534 73.7472 42.3366C73.8402 42.3199 73.936 42.3358 74.0186 42.3816C74.1012 42.4273 74.1655 42.5002 74.2005 42.5879C74.2356 42.6756 74.2393 42.7726 74.2111 42.8628C74.1829 42.9529 74.1244 43.0305 74.0456 43.0824C73.9667 43.1344 73.8724 43.1576 73.7785 43.1481C73.6845 43.1385 73.5967 43.0969 73.53 43.0301C73.4902 42.9912 73.459 42.9444 73.4383 42.8928C73.4177 42.8411 73.408 42.7857 73.41 42.7301ZM71.99 43.3301L73.57 41.2301L73.68 41.1101C73.6987 41.0904 73.7211 41.0748 73.7461 41.0641C73.771 41.0534 73.7978 41.0479 73.825 41.0479C73.8521 41.0479 73.8789 41.0534 73.9039 41.0641C73.9288 41.0748 73.9513 41.0904 73.97 41.1101L74.09 41.2301L75.66 43.3201C75.6887 43.362 75.7277 43.396 75.7732 43.4187C75.8186 43.4414 75.8692 43.4523 75.92 43.4501C76.0048 43.4501 76.0862 43.4164 76.1462 43.3564C76.2062 43.2964 76.24 43.215 76.24 43.1301C76.2483 43.0906 76.2483 43.0497 76.24 43.0101C76.2212 42.9738 76.1976 42.9402 76.17 42.9101L74.54 40.7301C74.4615 40.6264 74.3584 40.5439 74.24 40.4901C74.1174 40.4285 73.9821 40.3965 73.845 40.3965C73.7078 40.3965 73.5725 40.4285 73.45 40.4901C73.3321 40.5493 73.2295 40.6349 73.15 40.7401L71.52 43.0001C71.4737 43.0525 71.4488 43.1203 71.45 43.1901C71.4499 43.2565 71.4705 43.3212 71.5088 43.3753C71.5472 43.4295 71.6014 43.4704 71.664 43.4923C71.7266 43.5143 71.7945 43.5162 71.8583 43.4979C71.9221 43.4796 71.9785 43.4419 72.02 43.3901L71.99 43.3301ZM78.84 43.4501C78.7165 43.4515 78.594 43.4276 78.48 43.3801C78.2627 43.2917 78.0874 43.1235 77.99 42.9101C77.9415 42.7999 77.9176 42.6805 77.92 42.5601V40.8701C77.92 40.7852 77.9537 40.7039 78.0137 40.6438C78.0737 40.5838 78.1551 40.5501 78.24 40.5501C78.2824 40.5486 78.3247 40.5557 78.3643 40.5712C78.4039 40.5867 78.4398 40.6102 78.47 40.6401C78.5017 40.6694 78.527 40.7049 78.5443 40.7445C78.5615 40.7842 78.5702 40.8269 78.57 40.8701V42.5801C78.5706 42.6125 78.578 42.6444 78.5918 42.6737C78.6056 42.703 78.6254 42.729 78.65 42.7501C78.6738 42.7731 78.702 42.7912 78.7329 42.8032C78.7638 42.8152 78.7968 42.821 78.83 42.8201H82.83C82.9162 42.8201 82.9988 42.8544 83.0598 42.9153C83.1207 42.9763 83.155 43.0589 83.155 43.1451C83.155 43.2313 83.1207 43.314 83.0598 43.3749C82.9988 43.4359 82.9162 43.4701 82.83 43.4701L78.84 43.4501ZM89.84 42.7201C89.8291 42.6263 89.851 42.5316 89.902 42.452C89.9529 42.3725 90.0297 42.313 90.1194 42.2835C90.2092 42.2541 90.3063 42.2565 90.3945 42.2904C90.4826 42.3244 90.5564 42.3877 90.6032 42.4697C90.6501 42.5517 90.6672 42.6473 90.6517 42.7405C90.6361 42.8337 90.5889 42.9186 90.518 42.981C90.4471 43.0434 90.3568 43.0793 90.2624 43.0828C90.168 43.0863 90.0753 43.0571 90 43.0001C89.9602 42.9612 89.929 42.9144 89.9083 42.8628C89.8877 42.8111 89.878 42.7557 89.88 42.7001L89.84 42.7201ZM88.42 43.3201L90 41.2201L90.11 41.1001C90.1287 41.0804 90.1511 41.0648 90.1761 41.0541C90.201 41.0434 90.2278 41.0379 90.255 41.0379C90.2821 41.0379 90.3089 41.0434 90.3339 41.0541C90.3588 41.0648 90.3813 41.0804 90.4 41.1001L90.52 41.2201L92.09 43.3101C92.1187 43.352 92.1577 43.386 92.2032 43.4087C92.2486 43.4315 92.2992 43.4423 92.35 43.4401C92.4348 43.4401 92.5162 43.4064 92.5762 43.3464C92.6362 43.2864 92.67 43.205 92.67 43.1201C92.6783 43.0806 92.6783 43.0397 92.67 43.0001C92.6512 42.9638 92.6276 42.9302 92.6 42.9001L91 40.7401C90.9215 40.6364 90.8184 40.5539 90.7 40.5001C90.5774 40.4385 90.4421 40.4065 90.305 40.4065C90.1678 40.4065 90.0325 40.4385 89.91 40.5001C89.7921 40.5593 89.6895 40.6449 89.61 40.7501L88 43.0001C87.9537 43.0525 87.9288 43.1203 87.93 43.1901C87.9299 43.2565 87.9505 43.3212 87.9888 43.3753C88.0272 43.4295 88.0814 43.4704 88.144 43.4923C88.2066 43.5143 88.2745 43.5162 88.3383 43.4979C88.402 43.4796 88.4585 43.4419 88.5 43.3901L88.42 43.3201ZM96 42.0001C96 41.9152 96.0337 41.8339 96.0937 41.7738C96.1537 41.7138 96.2351 41.6801 96.32 41.6801H98.89C98.9996 41.6777 99.1086 41.6981 99.21 41.7401C99.3067 41.7797 99.3949 41.8374 99.47 41.9101C99.5437 41.9843 99.6016 42.0728 99.64 42.1701C99.6804 42.2719 99.7008 42.3806 99.7 42.4901V42.6401C99.7008 42.7497 99.6804 42.8583 99.64 42.9601C99.6016 43.0574 99.5437 43.1459 99.47 43.2201C99.3949 43.2928 99.3067 43.3505 99.21 43.3901C99.1086 43.4321 98.9996 43.4526 98.89 43.4501H95.39C95.2176 43.4541 95.0477 43.409 94.9 43.3201C94.7544 43.2294 94.6286 43.1104 94.53 42.9701C94.4286 42.8268 94.351 42.6681 94.3 42.5001C94.2479 42.3351 94.221 42.1632 94.22 41.9901C94.2199 41.817 94.2469 41.6449 94.3 41.4801C94.3559 41.3104 94.4405 41.1514 94.55 41.0101C94.6557 40.8689 94.7882 40.75 94.94 40.6601C95.0982 40.5703 95.278 40.5253 95.46 40.5301H99.38C99.422 40.5301 99.4636 40.5384 99.5024 40.5545C99.5412 40.5706 99.5765 40.5941 99.6062 40.6238C99.636 40.6536 99.6595 40.6888 99.6756 40.7277C99.6917 40.7665 99.7 40.8081 99.7 40.8501C99.7 40.8921 99.6917 40.9337 99.6756 40.9726C99.6595 41.0114 99.636 41.0467 99.6062 41.0764C99.5765 41.1061 99.5412 41.1297 99.5024 41.1458C99.4636 41.1618 99.422 41.1701 99.38 41.1701H95.64C95.5085 41.163 95.3774 41.1905 95.26 41.2501C95.1695 41.2991 95.091 41.3674 95.03 41.4501C94.9753 41.5317 94.9378 41.6236 94.92 41.7201C94.8798 41.8945 94.8798 42.0757 94.92 42.2501C94.9378 42.3467 94.9753 42.4386 95.03 42.5201C95.091 42.6029 95.1695 42.6712 95.26 42.7201C95.3774 42.7797 95.5085 42.8073 95.64 42.8001H98.9C98.9269 42.7991 98.9534 42.7923 98.9775 42.7802C99.0017 42.7681 99.0229 42.7511 99.04 42.7301C99.0796 42.6824 99.1009 42.6221 99.1 42.5601C99.0993 42.4984 99.0782 42.4386 99.04 42.3901C99.0224 42.3673 98.9996 42.349 98.9735 42.3368C98.9474 42.3247 98.9187 42.3189 98.89 42.3201H96.35C96.3055 42.3243 96.2606 42.3191 96.2183 42.3049C96.1759 42.2907 96.137 42.2678 96.104 42.2377C96.0711 42.2076 96.0448 42.1708 96.0269 42.1299C96.0089 42.089 95.9998 42.0448 96 42.0001ZM106.2 41.6801C106.286 41.6801 106.369 41.7144 106.43 41.7753C106.491 41.8363 106.525 41.9189 106.525 42.0051C106.525 42.0913 106.491 42.174 106.43 42.2349C106.369 42.2959 106.286 42.3301 106.2 42.3301H102.85C102.764 42.3301 102.681 42.2959 102.62 42.2349C102.559 42.174 102.525 42.0913 102.525 42.0051C102.525 41.9189 102.559 41.8363 102.62 41.7753C102.681 41.7144 102.764 41.6801 102.85 41.6801H106.2ZM102.78 41.1801H106.48C106.565 41.1801 106.646 41.1464 106.706 41.0864C106.766 41.0264 106.8 40.945 106.8 40.8601C106.8 40.7752 106.766 40.6939 106.706 40.6338C106.646 40.5738 106.565 40.5401 106.48 40.5401H102.63C102.448 40.5353 102.268 40.5803 102.11 40.6701C101.958 40.76 101.826 40.8789 101.72 41.0201C101.61 41.1614 101.526 41.3204 101.47 41.4901C101.417 41.6549 101.39 41.827 101.39 42.0001C101.391 42.1731 101.418 42.345 101.47 42.5101C101.521 42.6781 101.599 42.8368 101.7 42.9801C101.799 43.1204 101.924 43.2394 102.07 43.3301C102.218 43.419 102.388 43.4641 102.56 43.4601H106.48C106.566 43.4601 106.649 43.4259 106.71 43.3649C106.771 43.304 106.805 43.2213 106.805 43.1351C106.805 43.0489 106.771 42.9663 106.71 42.9053C106.649 42.8444 106.566 42.8101 106.48 42.8101H102.78C102.648 42.8173 102.517 42.7897 102.4 42.7301C102.31 42.6812 102.231 42.6129 102.17 42.5301C102.115 42.4486 102.078 42.3567 102.06 42.2601C102.02 42.0857 102.02 41.9045 102.06 41.7301C102.078 41.6336 102.115 41.5417 102.17 41.4601C102.231 41.3774 102.31 41.3091 102.4 41.2601C102.517 41.2005 102.648 41.173 102.78 41.1801ZM113.1 42.0001C113.109 41.9104 113.109 41.8199 113.1 41.7301C113.082 41.6336 113.045 41.5417 112.99 41.4601C112.929 41.3771 112.851 41.3088 112.76 41.2601C112.642 41.201 112.511 41.1734 112.38 41.1801H109.95C109.818 41.173 109.687 41.2005 109.57 41.2601C109.48 41.3091 109.401 41.3774 109.34 41.4601C109.285 41.5417 109.248 41.6336 109.23 41.7301C109.221 41.8199 109.221 41.9104 109.23 42.0001V43.1401C109.23 43.2263 109.196 43.309 109.135 43.3699C109.074 43.4309 108.991 43.4651 108.905 43.4651C108.819 43.4651 108.736 43.4309 108.675 43.3699C108.614 43.309 108.58 43.2263 108.58 43.1401V42.0001C108.58 41.827 108.607 41.6549 108.66 41.4901C108.716 41.3204 108.8 41.1614 108.91 41.0201C109.016 40.8789 109.148 40.76 109.3 40.6701C109.458 40.5803 109.638 40.5353 109.82 40.5401H112.64C112.814 40.5467 112.982 40.5984 113.13 40.6901C113.275 40.7821 113.4 40.9009 113.5 41.0401C113.601 41.1801 113.678 41.3354 113.73 41.5001C113.782 41.6617 113.809 41.8304 113.81 42.0001V43.1401C113.81 43.225 113.776 43.3064 113.716 43.3664C113.656 43.4264 113.575 43.4601 113.49 43.4601C113.405 43.4601 113.324 43.4264 113.264 43.3664C113.204 43.3064 113.17 43.225 113.17 43.1401V42.0001H113.1ZM115.43 42.0001C115.43 41.827 115.457 41.6549 115.51 41.4901C115.566 41.3204 115.65 41.1614 115.76 41.0201C115.866 40.8789 115.998 40.76 116.15 40.6701C116.308 40.5803 116.488 40.5353 116.67 40.5401H120.59C120.675 40.5401 120.756 40.5738 120.816 40.6338C120.876 40.6939 120.91 40.7752 120.91 40.8601C120.91 40.945 120.876 41.0264 120.816 41.0864C120.756 41.1464 120.675 41.1801 120.59 41.1801H116.81C116.678 41.173 116.547 41.2005 116.43 41.2601C116.34 41.3091 116.261 41.3774 116.2 41.4601C116.145 41.5417 116.108 41.6336 116.09 41.7301C116.05 41.9045 116.05 42.0857 116.09 42.2601C116.108 42.3567 116.145 42.4486 116.2 42.5301C116.261 42.6129 116.34 42.6812 116.43 42.7301C116.547 42.7897 116.678 42.8173 116.81 42.8101H120.59C120.676 42.8101 120.759 42.8444 120.82 42.9053C120.881 42.9663 120.915 43.0489 120.915 43.1351C120.915 43.2213 120.881 43.304 120.82 43.3649C120.759 43.4259 120.676 43.4601 120.59 43.4601H116.59C116.418 43.4641 116.248 43.419 116.1 43.3301C115.954 43.2394 115.829 43.1204 115.73 42.9801C115.629 42.8368 115.551 42.6781 115.5 42.5101C115.448 42.3451 115.421 42.1732 115.42 42.0001H115.43ZM124.89 43.1401C124.892 43.0457 124.927 42.955 124.989 42.8833C125.05 42.8116 125.134 42.7634 125.227 42.7466C125.32 42.7299 125.416 42.7458 125.499 42.7916C125.581 42.8373 125.645 42.9102 125.681 42.9979C125.716 43.0856 125.719 43.1826 125.691 43.2728C125.663 43.3629 125.604 43.4405 125.526 43.4924C125.447 43.5444 125.352 43.5676 125.258 43.5581C125.165 43.5485 125.077 43.5069 125.01 43.4401C124.97 43.4012 124.939 43.3544 124.918 43.3028C124.898 43.2511 124.888 43.1957 124.89 43.1401ZM125.31 41.7001H125.77C125.919 41.6802 126.065 41.6363 126.2 41.5701C126.383 41.4802 126.557 41.373 126.72 41.2501C126.913 41.1034 127.157 40.9034 127.45 40.6501C127.514 40.5939 127.595 40.5621 127.68 40.5601C127.765 40.5601 127.846 40.5938 127.906 40.6538C127.966 40.7139 128 40.7952 128 40.8801C128.011 40.9261 128.011 40.9741 128 41.0201C127.976 41.0616 127.946 41.0988 127.91 41.1301C127.63 41.3834 127.377 41.5901 127.15 41.7501C126.952 41.8988 126.741 42.0293 126.52 42.1401C126.335 42.2302 126.141 42.2973 125.94 42.3401C125.743 42.3811 125.542 42.4012 125.34 42.4001C125.129 42.4009 124.917 42.3808 124.71 42.3401C124.512 42.2997 124.32 42.2324 124.14 42.1401C123.923 42.0275 123.716 41.897 123.52 41.7501C123.3 41.5834 123.047 41.3768 122.76 41.1301C122.724 41.0988 122.694 41.0616 122.67 41.0201C122.659 40.9741 122.659 40.9261 122.67 40.8801C122.67 40.7952 122.704 40.7139 122.764 40.6538C122.824 40.5938 122.905 40.5601 122.99 40.5601C123.029 40.5511 123.07 40.5511 123.11 40.5601L123.22 40.6301C123.507 40.8834 123.747 41.0801 123.94 41.2201C124.103 41.3434 124.277 41.4506 124.46 41.5401C124.599 41.6056 124.748 41.6494 124.9 41.6701C125.036 41.691 125.173 41.7044 125.31 41.7101V41.7001Z" fill="#7B7B7C"/>
<path fill-rule="evenodd" clip-rule="evenodd" d="M70.23 24.8598C70.2719 26.4177 69.9925 27.9675 69.4093 29.4127C68.8261 30.8578 67.9515 32.1674 66.84 33.2598C65.6996 34.3776 64.3439 35.2518 62.8552 35.8294C61.3664 36.4071 59.7758 36.676 58.18 36.6198C56.5809 36.6775 54.9869 36.4094 53.4947 35.8318C52.0025 35.2542 50.6434 34.3791 49.5 33.2598C48.383 32.1706 47.5034 30.862 46.9165 29.4164C46.3297 27.9708 46.0483 26.4194 46.09 24.8598C46.0483 23.3002 46.3297 21.7488 46.9165 20.3032C47.5034 18.8576 48.383 17.549 49.5 16.4598C50.6434 15.3405 52.0025 14.4655 53.4947 13.8878C54.9869 13.3102 56.5809 13.0421 58.18 13.0998C59.7758 13.0437 61.3664 13.3126 62.8552 13.8902C64.3439 14.4678 65.6996 15.3421 66.84 16.4598C67.9515 17.5522 68.8261 18.8618 69.4093 20.307C69.9925 21.7522 70.2719 23.302 70.23 24.8598ZM66.36 24.8598C66.4074 23.7084 66.2109 22.56 65.7835 21.4898C65.3561 20.4197 64.7075 19.4518 63.88 18.6498C62.322 17.2084 60.2775 16.4077 58.155 16.4077C56.0324 16.4077 53.988 17.2084 52.43 18.6498C51.5974 19.4489 50.9439 20.4157 50.513 21.4863C50.082 22.5568 49.8833 23.7067 49.93 24.8598C49.8833 26.0129 50.082 27.1628 50.513 28.2334C50.9439 29.3039 51.5974 30.2707 52.43 31.0698C53.988 32.5113 56.0324 33.312 58.155 33.312C60.2775 33.312 62.322 32.5113 63.88 31.0698C64.7075 30.2678 65.3561 29.3 65.7835 28.2298C66.2109 27.1596 66.4074 26.0112 66.36 24.8598ZM93.21 35.8098H89L82.8 27.1998L76.56 35.8098H72.33L80.74 24.4898L72.86 13.8698H76.93L82.8 21.7898L88.62 13.8698H92.7L84.84 24.5298L93.21 35.8198V35.8098ZM118.41 24.8098H99.19C99.0853 27.0664 99.8191 29.2819 101.25 31.0298C101.963 31.8447 102.849 32.4889 103.845 32.9147C104.84 33.3405 105.918 33.5371 107 33.4898C110.5 33.4898 112.817 32.0298 113.95 29.1098H117.81C116.043 34.1498 112.437 36.6698 106.99 36.6698C105.412 36.7395 103.837 36.4713 102.372 35.8832C100.906 35.2952 99.5823 34.4007 98.49 33.2598C96.3909 30.9698 95.2805 27.944 95.4 24.8398C95.3556 23.2883 95.623 21.7436 96.1864 20.2973C96.7498 18.851 97.5977 17.5325 98.68 16.4198C100.9 14.273 103.862 13.0645 106.95 13.0459C110.038 13.0273 113.014 14.1999 115.26 16.3198C116.33 17.455 117.163 18.7925 117.709 20.2539C118.255 21.7153 118.504 23.271 118.44 24.8298L118.41 24.8098ZM114.52 22.0998C114.068 20.3379 113.058 18.7696 111.64 17.6298C110.324 16.5741 108.687 15.9991 107 15.9998C105.326 15.9854 103.7 16.5547 102.4 17.6098C100.962 18.7441 99.9478 20.3291 99.52 22.1098L114.52 22.0998ZM127.79 35.7798H124.13V0.319824H127.79V35.7798Z" fill="url(#paint1_linear_27_2914)"/>
<path fill-rule="evenodd" clip-rule="evenodd" d="M47 41.1901V42.8301H50.45C50.5815 42.8373 50.7125 42.8097 50.83 42.7501C50.9206 42.7014 50.9992 42.6331 51.06 42.5501C51.1147 42.4686 51.1521 42.3767 51.17 42.2801C51.2102 42.1057 51.2102 41.9245 51.17 41.7501C51.1521 41.6536 51.1147 41.5617 51.06 41.4801C50.9992 41.3971 50.9206 41.3288 50.83 41.2801C50.7124 41.221 50.5814 41.1934 50.45 41.2001L47 41.1901ZM51.83 42.0101C51.829 42.1799 51.802 42.3485 51.75 42.5101C51.6986 42.6748 51.6209 42.8302 51.52 42.9701C51.42 43.1092 51.2944 43.228 51.15 43.3201C51.0024 43.4118 50.8336 43.4635 50.66 43.4701H46.66C46.5751 43.4701 46.4937 43.4364 46.4337 43.3764C46.3737 43.3164 46.34 43.235 46.34 43.1501V40.8701C46.34 40.7852 46.3737 40.7039 46.4337 40.6438C46.4937 40.5838 46.5751 40.5501 46.66 40.5501H50.58C50.7619 40.5453 50.9417 40.5903 51.1 40.6801C51.2517 40.77 51.3843 40.8889 51.49 41.0301C51.5994 41.1714 51.684 41.3304 51.74 41.5001C51.7931 41.6649 51.8201 41.837 51.82 42.0101H51.83ZM54.16 43.1501C54.16 43.2363 54.1257 43.319 54.0648 43.3799C54.0038 43.4409 53.9212 43.4751 53.835 43.4751C53.7488 43.4751 53.6661 43.4409 53.6052 43.3799C53.5442 43.319 53.51 43.2363 53.51 43.1501V40.8701C53.51 40.7839 53.5442 40.7013 53.6052 40.6403C53.6661 40.5794 53.7488 40.5451 53.835 40.5451C53.9212 40.5451 54.0038 40.5794 54.0648 40.6403C54.1257 40.7013 54.16 40.7839 54.16 40.8701V43.1501ZM57.61 42.0001C57.61 41.9152 57.6437 41.8339 57.7037 41.7738C57.7637 41.7138 57.8451 41.6801 57.93 41.6801H60.5C60.6096 41.6777 60.7186 41.6981 60.82 41.7401C60.9167 41.7797 61.0049 41.8374 61.08 41.9101C61.1537 41.9843 61.2116 42.0728 61.25 42.1701C61.2904 42.2719 61.3108 42.3806 61.31 42.4901V42.6401C61.3108 42.7497 61.2904 42.8583 61.25 42.9601C61.2116 43.0574 61.1537 43.1459 61.08 43.2201C61.0049 43.2928 60.9167 43.3505 60.82 43.3901C60.7186 43.4321 60.6096 43.4526 60.5 43.4501H57C56.8276 43.4541 56.6577 43.409 56.51 43.3201C56.3644 43.2294 56.2386 43.1104 56.14 42.9701C56.0386 42.8268 55.961 42.6681 55.91 42.5001C55.8579 42.3351 55.831 42.1632 55.83 41.9901C55.8299 41.817 55.8569 41.6449 55.91 41.4801C55.9659 41.3104 56.0505 41.1514 56.16 41.0101C56.2657 40.8689 56.3982 40.75 56.55 40.6601C56.7082 40.5703 56.888 40.5253 57.07 40.5301H61C61.042 40.5301 61.0836 40.5384 61.1224 40.5545C61.1612 40.5706 61.1965 40.5941 61.2262 40.6238C61.256 40.6536 61.2795 40.6888 61.2956 40.7277C61.3117 40.7665 61.32 40.8081 61.32 40.8501C61.32 40.8921 61.3117 40.9337 61.2956 40.9726C61.2795 41.0114 61.256 41.0467 61.2262 41.0764C61.1965 41.1061 61.1612 41.1297 61.1224 41.1458C61.0836 41.1618 61.042 41.1701 61 41.1701H57.22C57.0885 41.163 56.9574 41.1905 56.84 41.2501C56.7495 41.2991 56.671 41.3674 56.61 41.4501C56.5553 41.5317 56.5178 41.6236 56.5 41.7201C56.4598 41.8945 56.4598 42.0757 56.5 42.2501C56.5178 42.3467 56.5553 42.4386 56.61 42.5201C56.671 42.6029 56.7495 42.6712 56.84 42.7201C56.9574 42.7797 57.0885 42.8073 57.22 42.8001H60.48C60.5069 42.7991 60.5334 42.7923 60.5575 42.7802C60.5817 42.7681 60.6029 42.7511 60.62 42.7301C60.6596 42.6824 60.6809 42.6221 60.68 42.5601C60.6793 42.4984 60.6582 42.4386 60.62 42.3901C60.6024 42.3673 60.5796 42.349 60.5535 42.3368C60.5274 42.3247 60.4987 42.3189 60.47 42.3201H57.93C57.8451 42.3201 57.7637 42.2864 57.7037 42.2264C57.6437 42.1664 57.61 42.085 57.61 42.0001ZM63.61 43.1401C63.61 43.2263 63.5757 43.309 63.5148 43.3699C63.4538 43.4309 63.3712 43.4651 63.285 43.4651C63.1988 43.4651 63.1161 43.4309 63.0552 43.3699C62.9942 43.309 62.96 43.2263 62.96 43.1401V40.8701C62.96 40.7839 62.9942 40.7013 63.0552 40.6403C63.1161 40.5794 63.1988 40.5451 63.285 40.5451C63.3712 40.5451 63.4538 40.5794 63.5148 40.6403C63.5757 40.7013 63.61 40.7839 63.61 40.8701V43.1501V43.1401ZM70.25 40.5301C70.3348 40.5301 70.4162 40.5638 70.4762 40.6238C70.5362 40.6839 70.57 40.7652 70.57 40.8501C70.5707 40.891 70.5632 40.9316 70.5477 40.9694C70.5322 41.0072 70.5092 41.0415 70.48 41.0701C70.4244 41.1278 70.3498 41.1634 70.27 41.1701H69C68.8833 41.175 68.7697 41.2094 68.67 41.2701C68.5892 41.321 68.5209 41.3894 68.47 41.4701C68.4213 41.5501 68.3874 41.6381 68.37 41.7301C68.3618 41.8166 68.3618 41.9036 68.37 41.9901V43.1301C68.37 43.2163 68.3357 43.299 68.2748 43.3599C68.2138 43.4209 68.1312 43.4551 68.045 43.4551C67.9588 43.4551 67.8761 43.4209 67.8152 43.3599C67.7542 43.299 67.72 43.2163 67.72 43.1301V42.0001C67.7191 41.8586 67.7359 41.7175 67.77 41.5801C67.8049 41.4401 67.8587 41.3056 67.93 41.1801H65.73C65.6451 41.1801 65.5637 41.1464 65.5037 41.0864C65.4437 41.0264 65.41 40.945 65.41 40.8601C65.41 40.7752 65.4437 40.6939 65.5037 40.6338C65.5637 40.5738 65.6451 40.5401 65.73 40.5401L70.25 40.5301ZM73.41 42.7301C73.4123 42.6357 73.4471 42.545 73.5086 42.4733C73.57 42.4016 73.6543 42.3534 73.7472 42.3366C73.8402 42.3199 73.936 42.3358 74.0186 42.3816C74.1012 42.4273 74.1655 42.5002 74.2005 42.5879C74.2356 42.6756 74.2393 42.7726 74.2111 42.8628C74.1829 42.9529 74.1244 43.0305 74.0456 43.0824C73.9667 43.1344 73.8724 43.1576 73.7785 43.1481C73.6845 43.1385 73.5967 43.0969 73.53 43.0301C73.4902 42.9912 73.459 42.9444 73.4383 42.8928C73.4177 42.8411 73.408 42.7857 73.41 42.7301ZM71.99 43.3301L73.57 41.2301L73.68 41.1101C73.6987 41.0904 73.7211 41.0748 73.7461 41.0641C73.771 41.0534 73.7978 41.0479 73.825 41.0479C73.8521 41.0479 73.8789 41.0534 73.9039 41.0641C73.9288 41.0748 73.9513 41.0904 73.97 41.1101L74.09 41.2301L75.66 43.3201C75.6887 43.362 75.7277 43.396 75.7732 43.4187C75.8186 43.4414 75.8692 43.4523 75.92 43.4501C76.0048 43.4501 76.0862 43.4164 76.1462 43.3564C76.2062 43.2964 76.24 43.215 76.24 43.1301C76.2483 43.0906 76.2483 43.0497 76.24 43.0101C76.2212 42.9738 76.1976 42.9402 76.17 42.9101L74.54 40.7301C74.4615 40.6264 74.3584 40.5439 74.24 40.4901C74.1174 40.4285 73.9821 40.3965 73.845 40.3965C73.7078 40.3965 73.5725 40.4285 73.45 40.4901C73.3321 40.5493 73.2295 40.6349 73.15 40.7401L71.52 43.0001C71.4737 43.0525 71.4488 43.1203 71.45 43.1901C71.4499 43.2565 71.4705 43.3212 71.5088 43.3753C71.5472 43.4295 71.6014 43.4704 71.664 43.4923C71.7266 43.5143 71.7945 43.5162 71.8583 43.4979C71.9221 43.4796 71.9785 43.4419 72.02 43.3901L71.99 43.3301ZM78.84 43.4501C78.7165 43.4515 78.594 43.4276 78.48 43.3801C78.2627 43.2917 78.0874 43.1235 77.99 42.9101C77.9415 42.7999 77.9176 42.6805 77.92 42.5601V40.8701C77.92 40.7852 77.9537 40.7039 78.0137 40.6438C78.0737 40.5838 78.1551 40.5501 78.24 40.5501C78.2824 40.5486 78.3247 40.5557 78.3643 40.5712C78.4039 40.5867 78.4398 40.6102 78.47 40.6401C78.5017 40.6694 78.527 40.7049 78.5443 40.7445C78.5615 40.7842 78.5702 40.8269 78.57 40.8701V42.5801C78.5706 42.6125 78.578 42.6444 78.5918 42.6737C78.6056 42.703 78.6254 42.729 78.65 42.7501C78.6738 42.7731 78.702 42.7912 78.7329 42.8032C78.7638 42.8152 78.7968 42.821 78.83 42.8201H82.83C82.9162 42.8201 82.9988 42.8544 83.0598 42.9153C83.1207 42.9763 83.155 43.0589 83.155 43.1451C83.155 43.2313 83.1207 43.314 83.0598 43.3749C82.9988 43.4359 82.9162 43.4701 82.83 43.4701L78.84 43.4501ZM89.84 42.7201C89.8291 42.6263 89.851 42.5316 89.902 42.452C89.9529 42.3725 90.0297 42.313 90.1194 42.2835C90.2092 42.2541 90.3063 42.2565 90.3945 42.2904C90.4826 42.3244 90.5564 42.3877 90.6032 42.4697C90.6501 42.5517 90.6672 42.6473 90.6517 42.7405C90.6361 42.8337 90.5889 42.9186 90.518 42.981C90.4471 43.0434 90.3568 43.0793 90.2624 43.0828C90.168 43.0863 90.0753 43.0571 90 43.0001C89.9602 42.9612 89.929 42.9144 89.9083 42.8628C89.8877 42.8111 89.878 42.7557 89.88 42.7001L89.84 42.7201ZM88.42 43.3201L90 41.2201L90.11 41.1001C90.1287 41.0804 90.1511 41.0648 90.1761 41.0541C90.201 41.0434 90.2278 41.0379 90.255 41.0379C90.2821 41.0379 90.3089 41.0434 90.3339 41.0541C90.3588 41.0648 90.3813 41.0804 90.4 41.1001L90.52 41.2201L92.09 43.3101C92.1187 43.352 92.1577 43.386 92.2032 43.4087C92.2486 43.4315 92.2992 43.4423 92.35 43.4401C92.4348 43.4401 92.5162 43.4064 92.5762 43.3464C92.6362 43.2864 92.67 43.205 92.67 43.1201C92.6783 43.0806 92.6783 43.0397 92.67 43.0001C92.6512 42.9638 92.6276 42.9302 92.6 42.9001L91 40.7401C90.9215 40.6364 90.8184 40.5539 90.7 40.5001C90.5774 40.4385 90.4421 40.4065 90.305 40.4065C90.1678 40.4065 90.0325 40.4385 89.91 40.5001C89.7921 40.5593 89.6895 40.6449 89.61 40.7501L88 43.0001C87.9537 43.0525 87.9288 43.1203 87.93 43.1901C87.9299 43.2565 87.9505 43.3212 87.9888 43.3753C88.0272 43.4295 88.0814 43.4704 88.144 43.4923C88.2066 43.5143 88.2745 43.5162 88.3383 43.4979C88.402 43.4796 88.4585 43.4419 88.5 43.3901L88.42 43.3201ZM96 42.0001C96 41.9152 96.0337 41.8339 96.0937 41.7738C96.1537 41.7138 96.2351 41.6801 96.32 41.6801H98.89C98.9996 41.6777 99.1086 41.6981 99.21 41.7401C99.3067 41.7797 99.3949 41.8374 99.47 41.9101C99.5437 41.9843 99.6016 42.0728 99.64 42.1701C99.6804 42.2719 99.7008 42.3806 99.7 42.4901V42.6401C99.7008 42.7497 99.6804 42.8583 99.64 42.9601C99.6016 43.0574 99.5437 43.1459 99.47 43.2201C99.3949 43.2928 99.3067 43.3505 99.21 43.3901C99.1086 43.4321 98.9996 43.4526 98.89 43.4501H95.39C95.2176 43.4541 95.0477 43.409 94.9 43.3201C94.7544 43.2294 94.6286 43.1104 94.53 42.9701C94.4286 42.8268 94.351 42.6681 94.3 42.5001C94.2479 42.3351 94.221 42.1632 94.22 41.9901C94.2199 41.817 94.2469 41.6449 94.3 41.4801C94.3559 41.3104 94.4405 41.1514 94.55 41.0101C94.6557 40.8689 94.7882 40.75 94.94 40.6601C95.0982 40.5703 95.278 40.5253 95.46 40.5301H99.38C99.422 40.5301 99.4636 40.5384 99.5024 40.5545C99.5412 40.5706 99.5765 40.5941 99.6062 40.6238C99.636 40.6536 99.6595 40.6888 99.6756 40.7277C99.6917 40.7665 99.7 40.8081 99.7 40.8501C99.7 40.8921 99.6917 40.9337 99.6756 40.9726C99.6595 41.0114 99.636 41.0467 99.6062 41.0764C99.5765 41.1061 99.5412 41.1297 99.5024 41.1458C99.4636 41.1618 99.422 41.1701 99.38 41.1701H95.64C95.5085 41.163 95.3774 41.1905 95.26 41.2501C95.1695 41.2991 95.091 41.3674 95.03 41.4501C94.9753 41.5317 94.9378 41.6236 94.92 41.7201C94.8798 41.8945 94.8798 42.0757 94.92 42.2501C94.9378 42.3467 94.9753 42.4386 95.03 42.5201C95.091 42.6029 95.1695 42.6712 95.26 42.7201C95.3774 42.7797 95.5085 42.8073 95.64 42.8001H98.9C98.9269 42.7991 98.9534 42.7923 98.9775 42.7802C99.0017 42.7681 99.0229 42.7511 99.04 42.7301C99.0796 42.6824 99.1009 42.6221 99.1 42.5601C99.0993 42.4984 99.0782 42.4386 99.04 42.3901C99.0224 42.3673 98.9996 42.349 98.9735 42.3368C98.9474 42.3247 98.9187 42.3189 98.89 42.3201H96.35C96.3055 42.3243 96.2606 42.3191 96.2183 42.3049C96.1759 42.2907 96.137 42.2678 96.104 42.2377C96.0711 42.2076 96.0448 42.1708 96.0269 42.1299C96.0089 42.089 95.9998 42.0448 96 42.0001ZM106.2 41.6801C106.286 41.6801 106.369 41.7144 106.43 41.7753C106.491 41.8363 106.525 41.9189 106.525 42.0051C106.525 42.0913 106.491 42.174 106.43 42.2349C106.369 42.2959 106.286 42.3301 106.2 42.3301H102.85C102.764 42.3301 102.681 42.2959 102.62 42.2349C102.559 42.174 102.525 42.0913 102.525 42.0051C102.525 41.9189 102.559 41.8363 102.62 41.7753C102.681 41.7144 102.764 41.6801 102.85 41.6801H106.2ZM102.78 41.1801H106.48C106.565 41.1801 106.646 41.1464 106.706 41.0864C106.766 41.0264 106.8 40.945 106.8 40.8601C106.8 40.7752 106.766 40.6939 106.706 40.6338C106.646 40.5738 106.565 40.5401 106.48 40.5401H102.63C102.448 40.5353 102.268 40.5803 102.11 40.6701C101.958 40.76 101.826 40.8789 101.72 41.0201C101.61 41.1614 101.526 41.3204 101.47 41.4901C101.417 41.6549 101.39 41.827 101.39 42.0001C101.391 42.1731 101.418 42.345 101.47 42.5101C101.521 42.6781 101.599 42.8368 101.7 42.9801C101.799 43.1204 101.924 43.2394 102.07 43.3301C102.218 43.419 102.388 43.4641 102.56 43.4601H106.48C106.566 43.4601 106.649 43.4259 106.71 43.3649C106.771 43.304 106.805 43.2213 106.805 43.1351C106.805 43.0489 106.771 42.9663 106.71 42.9053C106.649 42.8444 106.566 42.8101 106.48 42.8101H102.78C102.648 42.8173 102.517 42.7897 102.4 42.7301C102.31 42.6812 102.231 42.6129 102.17 42.5301C102.115 42.4486 102.078 42.3567 102.06 42.2601C102.02 42.0857 102.02 41.9045 102.06 41.7301C102.078 41.6336 102.115 41.5417 102.17 41.4601C102.231 41.3774 102.31 41.3091 102.4 41.2601C102.517 41.2005 102.648 41.173 102.78 41.1801ZM113.1 42.0001C113.109 41.9104 113.109 41.8199 113.1 41.7301C113.082 41.6336 113.045 41.5417 112.99 41.4601C112.929 41.3771 112.851 41.3088 112.76 41.2601C112.642 41.201 112.511 41.1734 112.38 41.1801H109.95C109.818 41.173 109.687 41.2005 109.57 41.2601C109.48 41.3091 109.401 41.3774 109.34 41.4601C109.285 41.5417 109.248 41.6336 109.23 41.7301C109.221 41.8199 109.221 41.9104 109.23 42.0001V43.1401C109.23 43.2263 109.196 43.309 109.135 43.3699C109.074 43.4309 108.991 43.4651 108.905 43.4651C108.819 43.4651 108.736 43.4309 108.675 43.3699C108.614 43.309 108.58 43.2263 108.58 43.1401V42.0001C108.58 41.827 108.607 41.6549 108.66 41.4901C108.716 41.3204 108.8 41.1614 108.91 41.0201C109.016 40.8789 109.148 40.76 109.3 40.6701C109.458 40.5803 109.638 40.5353 109.82 40.5401H112.64C112.814 40.5467 112.982 40.5984 113.13 40.6901C113.275 40.7821 113.4 40.9009 113.5 41.0401C113.601 41.1801 113.678 41.3354 113.73 41.5001C113.782 41.6617 113.809 41.8304 113.81 42.0001V43.1401C113.81 43.225 113.776 43.3064 113.716 43.3664C113.656 43.4264 113.575 43.4601 113.49 43.4601C113.405 43.4601 113.324 43.4264 113.264 43.3664C113.204 43.3064 113.17 43.225 113.17 43.1401V42.0001H113.1ZM115.43 42.0001C115.43 41.827 115.457 41.6549 115.51 41.4901C115.566 41.3204 115.65 41.1614 115.76 41.0201C115.866 40.8789 115.998 40.76 116.15 40.6701C116.308 40.5803 116.488 40.5353 116.67 40.5401H120.59C120.675 40.5401 120.756 40.5738 120.816 40.6338C120.876 40.6939 120.91 40.7752 120.91 40.8601C120.91 40.945 120.876 41.0264 120.816 41.0864C120.756 41.1464 120.675 41.1801 120.59 41.1801H116.81C116.678 41.173 116.547 41.2005 116.43 41.2601C116.34 41.3091 116.261 41.3774 116.2 41.4601C116.145 41.5417 116.108 41.6336 116.09 41.7301C116.05 41.9045 116.05 42.0857 116.09 42.2601C116.108 42.3567 116.145 42.4486 116.2 42.5301C116.261 42.6129 116.34 42.6812 116.43 42.7301C116.547 42.7897 116.678 42.8173 116.81 42.8101H120.59C120.676 42.8101 120.759 42.8444 120.82 42.9053C120.881 42.9663 120.915 43.0489 120.915 43.1351C120.915 43.2213 120.881 43.304 120.82 43.3649C120.759 43.4259 120.676 43.4601 120.59 43.4601H116.59C116.418 43.4641 116.248 43.419 116.1 43.3301C115.954 43.2394 115.829 43.1204 115.73 42.9801C115.629 42.8368 115.551 42.6781 115.5 42.5101C115.448 42.3451 115.421 42.1732 115.42 42.0001H115.43ZM124.89 43.1401C124.892 43.0457 124.927 42.955 124.989 42.8833C125.05 42.8116 125.134 42.7634 125.227 42.7466C125.32 42.7299 125.416 42.7458 125.499 42.7916C125.581 42.8373 125.645 42.9102 125.681 42.9979C125.716 43.0856 125.719 43.1826 125.691 43.2728C125.663 43.3629 125.604 43.4405 125.526 43.4924C125.447 43.5444 125.352 43.5676 125.258 43.5581C125.165 43.5485 125.077 43.5069 125.01 43.4401C124.97 43.4012 124.939 43.3544 124.918 43.3028C124.898 43.2511 124.888 43.1957 124.89 43.1401ZM125.31 41.7001H125.77C125.919 41.6802 126.065 41.6363 126.2 41.5701C126.383 41.4802 126.557 41.373 126.72 41.2501C126.913 41.1034 127.157 40.9034 127.45 40.6501C127.514 40.5939 127.595 40.5621 127.68 40.5601C127.765 40.5601 127.846 40.5938 127.906 40.6538C127.966 40.7139 128 40.7952 128 40.8801C128.011 40.9261 128.011 40.9741 128 41.0201C127.976 41.0616 127.946 41.0988 127.91 41.1301C127.63 41.3834 127.377 41.5901 127.15 41.7501C126.952 41.8988 126.741 42.0293 126.52 42.1401C126.335 42.2302 126.141 42.2973 125.94 42.3401C125.743 42.3811 125.542 42.4012 125.34 42.4001C125.129 42.4009 124.917 42.3808 124.71 42.3401C124.512 42.2997 124.32 42.2324 124.14 42.1401C123.923 42.0275 123.716 41.897 123.52 41.7501C123.3 41.5834 123.047 41.3768 122.76 41.1301C122.724 41.0988 122.694 41.0616 122.67 41.0201C122.659 40.9741 122.659 40.9261 122.67 40.8801C122.67 40.7952 122.704 40.7139 122.764 40.6538C122.824 40.5938 122.905 40.5601 122.99 40.5601C123.029 40.5511 123.07 40.5511 123.11 40.5601L123.22 40.6301C123.507 40.8834 123.747 41.0801 123.94 41.2201C124.103 41.3434 124.277 41.4506 124.46 41.5401C124.599 41.6056 124.748 41.6494 124.9 41.6701C125.036 41.691 125.173 41.7044 125.31 41.7101V41.7001Z" fill="#7B7B7C"/>
</g>
</g>
</g>
<defs>
<linearGradient id="paint0_linear_27_2914" x1="23.6" y1="44.0602" x2="23.6" y2="0.000197792" gradientUnits="userSpaceOnUse">
<stop stop-color="#66B6D9"/>
<stop offset="1" stop-color="#7FBA68"/>
</linearGradient>
<linearGradient id="paint1_linear_27_2914" x1="46.1" y1="18.4998" x2="127.79" y2="18.4998" gradientUnits="userSpaceOnUse">
<stop stop-color="#63B0CE"/>
<stop offset="1" stop-color="#7FBA68"/>
</linearGradient>
<clipPath id="clip0_27_2914">
<rect width="128" height="44.06" fill="white"/>
</clipPath>
<clipPath id="clip1_27_2914">
<rect width="128" height="44.06" fill="white"/>
</clipPath>
<clipPath id="clip2_27_2914">
<rect width="128" height="44.06" fill="white"/>
</clipPath>
</defs>
</svg>
