<svg width="18" height="18" viewBox="0 0 18 18" fill="none" xmlns="http://www.w3.org/2000/svg">
<path d="M17.2857 13.6517C17.2857 13.8727 17.2448 14.1612 17.1629 14.5172C17.0811 14.8733 16.9952 15.1536 16.9051 15.3582C16.7333 15.7674 16.234 16.2012 15.4074 16.6595C14.638 17.0769 13.8769 17.2856 13.1239 17.2856C12.9029 17.2856 12.686 17.2713 12.4732 17.2427C12.2604 17.214 12.0251 17.1629 11.7673 17.0892C11.5095 17.0156 11.3171 16.9562 11.1903 16.9112C11.0634 16.8662 10.8363 16.7823 10.5089 16.6595C10.1815 16.5368 9.98103 16.4631 9.90736 16.4385C9.10528 16.1521 8.38914 15.8124 7.75893 15.4196C6.71949 14.773 5.63914 13.8891 4.51786 12.7678C3.39658 11.6465 2.51265 10.5662 1.86607 9.52672C1.47321 8.89651 1.13356 8.18036 0.847098 7.37828C0.822545 7.30462 0.748884 7.1041 0.626116 6.77672C0.503348 6.44934 0.419457 6.22222 0.374442 6.09536C0.329427 5.9685 0.270089 5.77616 0.196429 5.51835C0.122768 5.26053 0.0716146 5.02523 0.0429687 4.81243C0.0143229 4.59963 0 4.38274 0 4.16176C0 3.40879 0.208705 2.64762 0.626116 1.87828C1.08445 1.05164 1.51823 0.552387 1.92746 0.380512C2.13207 0.290482 2.41239 0.204544 2.76841 0.1227C3.12444 0.0408554 3.41295 -6.86646e-05 3.63393 -6.86646e-05C3.74851 -6.86646e-05 3.83445 0.0122089 3.89174 0.0367622C4.03906 0.0858688 4.25595 0.396881 4.54241 0.969797C4.63244 1.1253 4.75521 1.34629 4.91071 1.63274C5.06622 1.9192 5.20945 2.17906 5.3404 2.41232C5.47135 2.64558 5.59821 2.86452 5.72098 3.06913C5.74554 3.10187 5.81715 3.20417 5.93583 3.37605C6.0545 3.54792 6.14248 3.6932 6.19978 3.81187C6.25707 3.93055 6.28571 4.04718 6.28571 4.16176C6.28571 4.32545 6.16908 4.53007 5.93583 4.7756C5.70257 5.02114 5.44885 5.24621 5.17466 5.45082C4.90048 5.65544 4.64676 5.87233 4.4135 6.10149C4.18024 6.33066 4.06362 6.5189 4.06362 6.66623C4.06362 6.73989 4.08408 6.83196 4.125 6.94245C4.16592 7.05294 4.20071 7.13684 4.22935 7.19413C4.258 7.25142 4.31529 7.34963 4.40123 7.48877C4.48716 7.62791 4.53423 7.70566 4.54241 7.72203C5.16443 8.84331 5.87649 9.80499 6.67857 10.6071C7.48065 11.4092 8.44234 12.1212 9.56361 12.7432C9.57998 12.7514 9.65774 12.7985 9.79687 12.8844C9.93601 12.9704 10.0342 13.0276 10.0915 13.0563C10.1488 13.0849 10.2327 13.1197 10.3432 13.1606C10.4537 13.2016 10.5458 13.222 10.6194 13.222C10.7667 13.222 10.955 13.1054 11.1842 12.8721C11.4133 12.6389 11.6302 12.3852 11.8348 12.111C12.0394 11.8368 12.2645 11.5831 12.51 11.3498C12.7556 11.1166 12.9602 10.9999 13.1239 10.9999C13.2385 10.9999 13.3551 11.0286 13.4738 11.0859C13.5924 11.1432 13.7377 11.2311 13.9096 11.3498C14.0815 11.4685 14.1838 11.5401 14.2165 11.5647C14.4211 11.6874 14.6401 11.8143 14.8733 11.9452C15.1066 12.0762 15.3664 12.2194 15.6529 12.3749C15.9394 12.5304 16.1603 12.6532 16.3158 12.7432C16.8888 13.0297 17.1998 13.2466 17.2489 13.3939C17.2734 13.4512 17.2857 13.5371 17.2857 13.6517Z" fill="black"/>
</svg>
