<svg width="32" height="32" viewBox="0 0 32 32" fill="none" xmlns="http://www.w3.org/2000/svg">
<path fill-rule="evenodd" clip-rule="evenodd" d="M18.986 5.62204C15.223 11.17 8.248 12.969 8.248 12.969C7.99101 13.0348 7.71841 12.9958 7.49018 12.8606C7.37717 12.7936 7.27845 12.7051 7.19967 12.6C7.12088 12.4949 7.06357 12.3753 7.031 12.248C6.99843 12.1208 6.99125 11.9884 7.00986 11.8583C7.02846 11.7283 7.0725 11.6032 7.13945 11.4902C7.27466 11.262 7.49501 11.0968 7.752 11.031C7.752 11.031 14.394 9.34804 17.641 4.01704L15.674 4.00004C15.4088 3.99765 15.1554 3.89001 14.9695 3.70078C14.7837 3.51156 14.6806 3.25626 14.683 2.99104C14.6854 2.72582 14.793 2.47242 14.9823 2.28657C15.1715 2.10072 15.4268 1.99765 15.692 2.00004L19.972 2.03804C20.2343 2.03987 20.4853 2.14487 20.6707 2.33032C20.8562 2.51578 20.9612 2.76678 20.963 3.02904L21 7.21004C21.0024 7.47526 20.8993 7.73056 20.7135 7.91978C20.5276 8.10901 20.2742 8.21665 20.009 8.21904C19.7438 8.22143 19.4885 8.11836 19.2993 7.93251C19.11 7.74666 19.0024 7.49326 19 7.22804L18.986 5.62204ZM10.485 30H6C5.46957 30 4.96086 29.7893 4.58579 29.4143C4.21071 29.0392 4 28.5305 4 28V19C4 18.4696 4.21071 17.9609 4.58579 17.5858C4.96086 17.2108 5.46957 17 6 17H10.485V30ZM12.485 16.035C12.485 14.911 13.396 14 14.52 14H17.397C18.521 14 19.432 14.911 19.432 16.035V30H12.485V16.035ZM21.432 12.035C21.432 10.911 22.343 10 23.466 10H26C26.5304 10 27.0391 10.2108 27.4142 10.5858C27.7893 10.9609 28 11.4696 28 12V28C28 28.5305 27.7893 29.0392 27.4142 29.4143C27.0391 29.7893 26.5304 30 26 30H21.432V12.035Z" fill="white"/>
</svg>
