<svg width="32" height="32" viewBox="0 0 32 32" fill="none" xmlns="http://www.w3.org/2000/svg">
<path fill-rule="evenodd" clip-rule="evenodd" d="M18.494 30.1158C17.6833 30.2585 16.85 30.3332 15.9993 30.3332C8.08868 30.3332 1.66602 23.9105 1.66602 15.9998C1.66602 8.08917 8.08868 1.6665 15.9993 1.6665C23.91 1.6665 30.3327 8.08917 30.3327 15.9998C30.3327 16.8505 30.258 17.6838 30.1153 18.4945C29.3453 17.4134 28.3279 16.5322 27.148 15.9243C25.9681 15.3163 24.66 14.9994 23.3327 14.9998C21.123 15.0013 19.0042 15.8797 17.4417 17.4422C15.8792 19.0047 15.0008 21.1235 14.9993 23.3332C14.9989 24.6605 15.3159 25.9686 15.9238 27.1485C16.5317 28.3284 17.4129 29.3458 18.494 30.1158ZM17.666 8.6665V15.3332C17.666 15.5985 17.5607 15.8532 17.3727 16.0398L12.0393 21.3732C11.9465 21.466 11.8364 21.5396 11.7151 21.5898C11.5939 21.64 11.4639 21.6659 11.3327 21.6659C11.2014 21.6659 11.0715 21.64 10.9502 21.5898C10.829 21.5396 10.7188 21.466 10.626 21.3732C10.5332 21.2804 10.4596 21.1702 10.4094 21.049C10.3592 20.9277 10.3333 20.7977 10.3333 20.6665C10.3333 20.5353 10.3592 20.4053 10.4094 20.2841C10.4596 20.1628 10.5332 20.0526 10.626 19.9598L15.666 14.9185V8.6665C15.666 8.40129 15.7714 8.14693 15.9589 7.9594C16.1464 7.77186 16.4008 7.6665 16.666 7.6665C16.9312 7.6665 17.1856 7.77186 17.3731 7.9594C17.5607 8.14693 17.666 8.40129 17.666 8.6665Z" fill="#ffffffff"/>
<path fill-rule="evenodd" clip-rule="evenodd" d="M23.332 16.333C19.468 16.333 16.332 19.469 16.332 23.333C16.332 27.197 19.468 30.333 23.332 30.333C27.196 30.333 30.332 27.197 30.332 23.333C30.332 19.469 27.196 16.333 23.332 16.333ZM19.9587 23.7063L21.9587 25.7063C22.0515 25.7992 22.1616 25.8729 22.2829 25.9232C22.4041 25.9735 22.5341 25.9993 22.6654 25.9993C22.7966 25.9993 22.9266 25.9735 23.0479 25.9232C23.1691 25.8729 23.2793 25.7992 23.372 25.7063L26.7054 22.373C26.7982 22.2802 26.8718 22.17 26.922 22.0488C26.9722 21.9275 26.9981 21.7976 26.9981 21.6663C26.9981 21.5351 26.9722 21.4051 26.922 21.2839C26.8718 21.1626 26.7982 21.0525 26.7054 20.9597C26.6126 20.8669 26.5024 20.7933 26.3811 20.743C26.2599 20.6928 26.1299 20.667 25.9987 20.667C25.8675 20.667 25.7375 20.6928 25.6163 20.743C25.495 20.7933 25.3848 20.8669 25.292 20.9597L22.6654 23.585L21.372 22.293C21.2792 22.2002 21.1691 22.1266 21.0478 22.0764C20.9266 22.0261 20.7966 22.0003 20.6654 22.0003C20.5341 22.0003 20.4042 22.0261 20.2829 22.0764C20.1617 22.1266 20.0515 22.2002 19.9587 22.293C19.8659 22.3858 19.7923 22.496 19.7421 22.6172C19.6918 22.7385 19.666 22.8684 19.666 22.9997C19.666 23.1309 19.6918 23.2609 19.7421 23.3821C19.7923 23.5034 19.8659 23.6135 19.9587 23.7063Z" fill="#ffffffff"/>
</svg>
