<svg width="21" height="21" viewBox="0 0 21 21" fill="none" xmlns="http://www.w3.org/2000/svg">
<path d="M12.4955 12.0601C12.4955 12.0601 12.5826 11.9518 12.7567 11.7353C12.9308 11.5188 13.0759 11.4105 13.192 11.4105C13.308 11.4105 13.7433 11.6069 14.4978 11.9998C15.2522 12.3926 15.6518 12.6293 15.6964 12.7096C15.7143 12.7543 15.7232 12.8212 15.7232 12.9105C15.7232 13.2051 15.6473 13.5444 15.4955 13.9284C15.3527 14.2766 15.0357 14.569 14.5446 14.8056C14.0536 15.0422 13.5982 15.1605 13.1786 15.1605C12.6696 15.1605 11.8214 14.8837 10.6339 14.3301C9.75893 13.9284 9 13.4016 8.35714 12.7498C7.71429 12.098 7.05357 11.2721 6.375 10.2721C5.73214 9.31676 5.41518 8.45068 5.42411 7.6739V7.56676C5.45089 6.75426 5.78125 6.0489 6.41518 5.45068C6.62946 5.25426 6.86161 5.15604 7.11161 5.15604C7.16518 5.15604 7.24554 5.16274 7.35268 5.17613C7.45982 5.18952 7.54464 5.19622 7.60714 5.19622C7.77679 5.19622 7.89509 5.22524 7.96205 5.28327C8.02902 5.34131 8.09821 5.46408 8.16964 5.65158C8.24107 5.83015 8.38839 6.22301 8.61161 6.83015C8.83482 7.43729 8.94643 7.77211 8.94643 7.83461C8.94643 8.02211 8.79241 8.27881 8.48438 8.6047C8.17634 8.93059 8.02232 9.13818 8.02232 9.22747C8.02232 9.28997 8.04464 9.35693 8.08929 9.42836C8.39286 10.0801 8.84821 10.6918 9.45536 11.2632C9.95536 11.7364 10.6295 12.1873 11.4777 12.6159C11.5848 12.6784 11.683 12.7096 11.7723 12.7096C11.9062 12.7096 12.1473 12.4931 12.4955 12.0601ZM10.4732 18.5087C11.6071 18.5087 12.6942 18.2855 13.7344 17.8391C14.7746 17.3926 15.6696 16.7944 16.4196 16.0444C17.1696 15.2944 17.7679 14.3993 18.2143 13.3592C18.6607 12.319 18.8839 11.2319 18.8839 10.098C18.8839 8.96408 18.6607 7.87702 18.2143 6.83684C17.7679 5.79667 17.1696 4.90158 16.4196 4.15158C15.6696 3.40158 14.7746 2.80336 13.7344 2.35693C12.6942 1.91051 11.6071 1.68729 10.4732 1.68729C9.33929 1.68729 8.25223 1.91051 7.21205 2.35693C6.17188 2.80336 5.27679 3.40158 4.52679 4.15158C3.77679 4.90158 3.17857 5.79667 2.73214 6.83684C2.28571 7.87702 2.0625 8.96408 2.0625 10.098C2.0625 11.9105 2.59821 13.5534 3.66964 15.0266L2.61161 18.1471L5.85268 17.1159C7.26339 18.0444 8.80357 18.5087 10.4732 18.5087ZM6.5558 0.803362C6.5558 0.803362 6.86719 0.669434 7.48996 0.401577C8.11272 0.133718 9.10714 -0.000209808 10.4732 -0.000209808C11.8393 -0.000209808 13.1451 0.267647 14.3906 0.803362C15.6362 1.33908 16.7098 2.05783 17.6116 2.95961C18.5134 3.8614 19.2321 4.93506 19.7679 6.18059C20.3036 7.42613 20.5714 8.73193 20.5714 10.098C20.5714 11.4641 20.3036 12.7699 19.7679 14.0154C19.2321 15.261 18.5134 16.3346 17.6116 17.2364C16.7098 18.1382 15.6362 18.8569 14.3906 19.3926C13.1451 19.9284 11.8393 20.1962 10.4732 20.1962C8.73214 20.1962 7.10268 19.7766 5.58482 18.9373L0 20.7319L1.82143 15.3078C0.857143 13.7185 0.375 11.9819 0.375 10.098C0.375 8.73193 0.642857 7.42613 1.17857 6.18059C1.71429 4.93506 2.43304 3.8614 3.33482 2.95961C4.23661 2.05783 5.31027 1.33908 6.5558 0.803362Z" fill="black"/>
</svg>
